<svg width="476" height="404" viewBox="0 0 476 404" fill="none" xmlns="http://www.w3.org/2000/svg">
<path d="M319.697 9.04305C319.697 9.04305 246.598 -16.9452 174.843 24.4343C103.088 65.8137 66.9271 147.971 35.7908 213.773C4.65447 279.575 22.5932 346.509 77.3648 377.035C132.136 407.561 169.358 362.564 246.235 360.37C323.112 358.177 343.739 369.163 407.507 325.758C471.274 282.353 482.791 179.806 432.495 103.973C382.2 28.1406 319.697 9.04305 319.697 9.04305Z" fill="#0187FF"/>
<path opacity="0.7" d="M319.697 9.04305C319.697 9.04305 246.598 -16.9452 174.843 24.4343C103.088 65.8137 66.9271 147.971 35.7908 213.773C4.65447 279.575 22.5932 346.509 77.3648 377.035C132.136 407.561 169.358 362.564 246.235 360.37C323.112 358.177 343.739 369.163 407.507 325.758C471.274 282.353 482.791 179.806 432.495 103.973C382.2 28.1406 319.697 9.04305 319.697 9.04305Z" fill="white"/>
<path d="M114.23 174.186C117.14 173.496 122.412 169.347 122.421 169.347C122.43 169.347 118.626 166.693 118.37 166.561C115.345 164.986 108.569 163.721 105.853 166.401C105.413 166.859 105.075 167.404 104.86 168.001C104.645 168.598 104.559 169.234 104.606 169.867C104.654 170.499 104.835 171.115 105.136 171.673C105.438 172.232 105.854 172.72 106.357 173.106C108.436 174.831 111.753 174.769 114.23 174.186Z" fill="#0187FF"/>
<path d="M127.752 188.319C130.273 186.94 134.015 181.959 134.307 181.561C137.15 183.709 140.135 185.662 143.241 187.408C145.01 188.443 146.894 189.425 148.76 190.38C147.876 190.071 146.991 189.797 146.903 189.77C143.568 189.054 136.704 189.62 134.784 192.919C134.481 193.477 134.298 194.093 134.249 194.726C134.199 195.359 134.283 195.995 134.496 196.594C134.709 197.192 135.045 197.739 135.484 198.199C135.922 198.658 136.452 199.02 137.04 199.261C139.499 200.367 142.692 199.438 144.93 198.218C147.168 196.997 150.467 192.795 151.325 191.672L153.475 192.76C156.934 194.476 160.392 196.174 163.736 197.943C164.912 198.571 166.044 199.226 167.186 199.881C166.372 199.606 165.682 199.376 165.576 199.359C162.241 198.633 155.377 199.199 153.466 202.508C153.163 203.065 152.98 203.68 152.931 204.312C152.881 204.945 152.965 205.581 153.178 206.179C153.391 206.776 153.728 207.322 154.166 207.781C154.604 208.24 155.134 208.601 155.722 208.841C158.181 209.956 161.365 209.018 163.603 207.797C165.841 206.577 168.822 202.782 169.848 201.455C170.989 202.163 172.139 202.862 173.218 203.605C173.943 204.118 174.687 204.569 175.385 205.126L177.473 206.736C178.773 207.806 180.127 208.903 181.347 209.973C182.232 210.716 183.019 211.442 183.842 212.167C182.674 211.53 180.365 210.336 180.162 210.256C176.978 209.036 170.105 208.558 167.716 211.539C167.332 212.044 167.059 212.625 166.914 213.242C166.769 213.86 166.755 214.502 166.875 215.125C166.994 215.748 167.243 216.339 167.606 216.86C167.969 217.381 168.438 217.819 168.981 218.147C171.246 219.615 174.536 219.173 176.942 218.306C179.596 217.35 183.877 213.184 184.408 212.653C185.761 213.865 187.061 215.042 188.273 216.192C191.537 219.243 194.279 221.986 196.429 224.206L198.463 222.684C196.208 220.446 193.298 217.642 189.804 214.52C188.441 213.29 186.955 212.008 185.381 210.699C186.38 209.055 187.281 207.354 188.079 205.604C190.918 206.117 196.411 205.091 197.119 204.949C197.579 206.718 198.003 208.408 198.393 210.026C199.401 214.246 200.162 217.987 200.728 220.951L202.939 219.288C202.329 216.501 201.568 213.184 200.595 209.478C200.126 207.709 199.604 205.807 199.038 203.87C199.702 203.56 205.124 200.977 206.946 198.837C208.591 196.9 210.157 193.963 209.6 191.336C209.488 190.708 209.245 190.111 208.886 189.584C208.528 189.057 208.062 188.611 207.519 188.277C206.976 187.943 206.368 187.728 205.736 187.645C205.104 187.562 204.461 187.614 203.85 187.798C200.232 189.001 198.278 195.608 198.313 199.023C198.313 199.226 198.578 201.402 198.764 202.782C198.525 201.986 198.313 201.216 198.065 200.411C197.579 198.801 197.048 197.209 196.482 195.502C196.181 194.679 195.872 193.857 195.597 193.025C195.323 192.194 194.899 191.345 194.545 190.504C193.66 188.549 192.776 186.621 191.741 184.693C193.147 184.268 198.118 182.676 200.047 180.995C201.975 179.315 203.965 176.661 203.78 173.972C203.76 173.338 203.606 172.715 203.33 172.144C203.053 171.573 202.658 171.067 202.172 170.658C201.687 170.25 201.12 169.949 200.51 169.775C199.9 169.6 199.26 169.557 198.631 169.646C194.863 170.283 191.935 176.528 191.449 179.898C191.449 180.111 191.343 182.552 191.325 183.923C190.715 182.773 190.104 181.615 189.45 180.473C187.548 177.165 185.522 173.866 183.514 170.575L181.692 167.541C182.196 167.4 188.141 165.639 190.308 163.755C192.236 162.092 194.226 159.43 194.041 156.732C194.019 156.098 193.865 155.476 193.588 154.906C193.311 154.335 192.916 153.83 192.431 153.422C191.945 153.014 191.379 152.713 190.77 152.538C190.16 152.363 189.52 152.318 188.892 152.407C185.124 153.052 182.196 159.288 181.71 162.659C181.71 162.915 181.568 166.462 181.586 167.364C180.25 165.135 178.932 162.942 177.747 160.651C176.112 157.619 174.675 154.484 173.448 151.265C173.678 151.195 179.897 149.381 182.117 147.462C184.036 145.79 186.026 143.128 185.85 140.439C185.827 139.804 185.672 139.182 185.394 138.612C185.115 138.041 184.72 137.536 184.234 137.128C183.748 136.72 183.181 136.419 182.571 136.244C181.961 136.069 181.321 136.025 180.693 136.113C176.924 136.75 173.997 142.986 173.51 146.365C173.51 146.63 173.36 150.443 173.395 151.133C173.324 150.947 173.227 150.761 173.156 150.567C172.016 147.305 171.166 143.948 170.618 140.536C170.29 138.661 170.087 136.838 169.928 135.069C171.122 134.848 176.553 133.787 178.773 132.283C180.993 130.779 183.134 128.409 183.249 125.711C183.298 125.078 183.213 124.442 183 123.845C182.786 123.247 182.45 122.702 182.012 122.243C181.574 121.784 181.044 121.422 180.457 121.182C179.87 120.941 179.239 120.826 178.605 120.846C174.793 121.067 171.201 126.94 170.343 130.248C170.299 130.425 170.025 132.301 169.848 133.672C169.786 132.876 169.706 132.044 169.662 131.283C169.494 128.4 169.521 125.746 169.565 123.393C169.565 122.057 169.653 120.854 169.715 119.731C170.777 118.9 175.023 115.521 176.217 113.221C177.411 110.921 178.313 107.763 177.172 105.322C176.924 104.737 176.555 104.212 176.09 103.779C175.625 103.347 175.074 103.017 174.473 102.812C173.873 102.607 173.235 102.53 172.603 102.588C171.97 102.645 171.357 102.835 170.803 103.146C167.522 105.101 167.044 111.991 167.805 115.299C167.867 115.583 169.415 119.961 169.468 119.917L169.538 119.864C169.45 120.952 169.37 122.111 169.317 123.402C169.22 125.755 169.14 128.417 169.247 131.31C169.327 134.436 169.59 137.555 170.034 140.651C170.516 144.119 171.303 147.538 172.387 150.867C172.398 150.907 172.412 150.946 172.431 150.982C171.776 150.098 169.857 147.603 169.68 147.444C167.3 145.003 161.259 141.695 157.845 143.393C157.285 143.691 156.793 144.103 156.403 144.603C156.013 145.104 155.732 145.68 155.58 146.296C155.427 146.912 155.406 147.553 155.517 148.177C155.628 148.802 155.87 149.396 156.226 149.921C157.668 152.203 160.843 153.185 163.382 153.397C166.239 153.645 172.112 151.549 172.581 151.38C173.747 154.739 175.136 158.016 176.739 161.19C177.676 163.039 178.676 164.879 179.702 166.71C179.109 165.94 178.579 165.268 178.49 165.179C176.111 162.738 170.069 159.421 166.646 161.119C166.086 161.419 165.596 161.833 165.206 162.334C164.817 162.835 164.537 163.413 164.385 164.029C164.234 164.646 164.213 165.287 164.325 165.912C164.437 166.537 164.679 167.131 165.036 167.656C166.469 169.93 169.645 170.911 172.183 171.133C174.722 171.354 179.799 169.664 181.126 169.204C181.533 169.903 181.922 170.602 182.329 171.301C184.266 174.635 186.212 177.961 188.017 181.278C188.662 182.455 189.246 183.622 189.839 184.817C189.308 184.135 188.857 183.569 188.777 183.49C186.398 181.048 180.357 177.731 176.942 179.439C176.382 179.736 175.891 180.149 175.501 180.649C175.11 181.149 174.83 181.726 174.677 182.342C174.524 182.957 174.503 183.598 174.614 184.223C174.726 184.847 174.967 185.441 175.323 185.967C176.765 188.249 179.941 189.231 182.479 189.443C185.018 189.655 189.6 188.143 191.183 187.594C191.75 188.815 192.316 190.035 192.82 191.247C193.138 192.079 193.501 192.857 193.775 193.715L194.66 196.21C195.155 197.811 195.668 199.465 196.102 201.048C196.42 202.145 196.694 203.189 196.986 204.25C196.367 203.074 195.093 200.809 194.969 200.632C193.136 198.255 190.72 196.39 187.955 195.219C187.766 194.944 187.55 194.689 187.309 194.458C186.868 194.002 186.335 193.645 185.746 193.409C185.157 193.172 184.525 193.063 183.891 193.087C183.256 193.111 182.634 193.268 182.065 193.549C181.496 193.829 180.992 194.227 180.587 194.715C178.225 197.713 180.242 204.303 182.152 207.099C182.267 207.258 183.682 208.938 184.602 209.973C183.974 209.443 183.364 208.921 182.709 208.39C181.418 207.311 180.1 206.285 178.685 205.161L176.518 203.649C175.819 203.109 175.014 202.632 174.253 202.118C172.484 200.96 170.609 199.881 168.707 198.828C169.645 197.696 172.909 193.627 173.599 191.159C174.288 188.691 174.483 185.392 172.838 183.198C172.47 182.681 171.997 182.247 171.451 181.924C170.904 181.601 170.296 181.397 169.666 181.324C169.035 181.252 168.396 181.313 167.791 181.503C167.185 181.693 166.626 182.008 166.151 182.428C163.364 185.082 164.381 191.858 165.823 194.945C165.912 195.139 167.203 197.236 167.937 198.368C166.787 197.749 165.646 197.121 164.47 196.528C161.056 194.812 157.553 193.184 154.059 191.548L150.865 190.018C151.21 189.62 155.2 184.87 155.969 182.11C156.65 179.651 156.854 176.334 155.209 174.193C154.841 173.676 154.368 173.242 153.822 172.919C153.275 172.596 152.667 172.392 152.036 172.32C151.406 172.247 150.767 172.308 150.162 172.498C149.556 172.688 148.997 173.004 148.521 173.424C145.735 176.033 146.752 182.853 148.185 185.94C148.3 186.17 150.167 189.186 150.671 189.929C148.336 188.806 146.018 187.665 143.771 186.453C140.735 184.821 137.807 182.995 135.005 180.986C135.165 180.801 139.349 175.865 140.136 173.025C140.826 170.575 141.02 167.258 139.375 165.065C139.008 164.547 138.536 164.113 137.99 163.79C137.444 163.468 136.836 163.264 136.206 163.192C135.576 163.12 134.937 163.182 134.333 163.374C133.728 163.565 133.171 163.882 132.697 164.304C129.902 166.913 130.928 173.724 132.361 176.811C132.476 177.059 134.484 180.297 134.89 180.854C134.731 180.739 134.545 180.633 134.386 180.518C131.633 178.428 129.072 176.095 126.735 173.547C125.426 172.159 124.249 170.761 123.135 169.372C124.019 168.532 127.964 164.649 128.955 162.181C129.946 159.713 130.459 156.537 129.07 154.22C128.761 153.666 128.338 153.183 127.83 152.802C127.322 152.422 126.74 152.152 126.121 152.011C125.502 151.87 124.861 151.861 124.238 151.984C123.615 152.107 123.026 152.359 122.507 152.725C119.446 155.016 119.694 161.898 120.799 165.109C120.861 165.286 121.684 167.002 122.277 168.24C121.79 167.603 121.268 166.957 120.808 166.347C119.039 164.03 117.633 161.809 116.386 159.828C115.678 158.696 115.059 157.661 114.484 156.679C114.917 155.405 116.571 150.257 116.324 147.665C116.076 145.074 115.059 141.96 112.785 140.589C112.256 140.239 111.659 140.004 111.033 139.9C110.407 139.796 109.766 139.825 109.151 139.986C108.537 140.146 107.964 140.434 107.468 140.83C106.973 141.227 106.566 141.723 106.275 142.287C104.612 145.728 108 151.725 110.477 154.078C110.689 154.282 114.386 157.077 114.413 157.006V156.935C114.944 157.882 115.519 158.899 116.182 159.987C117.403 162.004 118.836 164.268 120.49 166.621C122.281 169.184 124.219 171.641 126.293 173.981C128.608 176.606 131.15 179.022 133.891 181.199L133.988 181.27C132.944 180.88 129.981 179.872 129.742 179.828C126.408 179.102 119.543 179.668 117.624 182.977C117.322 183.534 117.141 184.149 117.092 184.781C117.043 185.413 117.128 186.049 117.34 186.646C117.553 187.243 117.889 187.789 118.327 188.248C118.764 188.707 119.293 189.069 119.88 189.31C122.321 190.478 125.514 189.54 127.752 188.319Z" fill="#0187FF"/>
<path d="M169.34 134.652C169.411 134.652 167.642 130.362 167.5 130.097C165.846 127.116 160.893 122.321 157.151 123.064C156.539 123.209 155.965 123.479 155.464 123.859C154.962 124.238 154.546 124.718 154.241 125.267C153.937 125.817 153.75 126.424 153.693 127.05C153.637 127.676 153.712 128.307 153.914 128.903C154.692 131.477 157.496 133.263 159.893 134.139C162.653 135.174 169.34 134.652 169.34 134.652Z" fill="#0187FF"/>
<path d="M365.977 37.5742H303.271L300.617 42.4127C299.209 44.9504 297.147 47.0652 294.646 48.5376C292.145 50.01 289.296 50.7865 286.393 50.7865C283.491 50.7865 280.642 50.01 278.141 48.5376C275.64 47.0652 273.578 44.9504 272.17 42.4127L269.56 37.5742H206.899C203.728 37.5341 200.672 38.7545 198.401 40.9672C196.13 43.1799 194.831 46.2038 194.789 49.3741V372.289C194.831 375.46 196.13 378.484 198.401 380.696C200.672 382.909 203.728 384.13 206.899 384.089H365.977C369.148 384.13 372.205 382.909 374.478 380.697C376.75 378.484 378.051 375.461 378.095 372.289V49.3741C378.051 46.203 376.75 43.1792 374.478 40.9667C372.205 38.7542 369.148 37.534 365.977 37.5742Z" fill="white"/>
<path d="M365.484 42.2217H352.844V49.1566H365.484V42.2217Z" stroke="#263238" stroke-width="0.910723" stroke-linecap="round" stroke-linejoin="round"/>
<path d="M362.707 42.2217H352.844V49.1566H362.707V42.2217Z" fill="#263238" stroke="#263238" stroke-width="0.804247" stroke-linecap="round" stroke-linejoin="round"/>
<path d="M367.231 44.1553H365.453V47.207H367.231V44.1553Z" fill="#263238" stroke="#263238" stroke-width="0.804247" stroke-linecap="round" stroke-linejoin="round"/>
<path d="M207.545 44.3701H205.228V48.3418H207.545V44.3701Z" fill="#263238" stroke="#263238" stroke-width="0.979514" stroke-linecap="round" stroke-linejoin="round"/>
<path d="M211.189 42.9668H208.871V48.336H211.189V42.9668Z" fill="#263238" stroke="#263238" stroke-width="0.979514" stroke-linecap="round" stroke-linejoin="round"/>
<path d="M214.833 41.3271H212.516V48.3417H214.833V41.3271Z" fill="#263238" stroke="#263238" stroke-width="0.979514" stroke-linecap="round" stroke-linejoin="round"/>
<path d="M200.398 51.5225H372.453" stroke="#263238" stroke-width="1.10919" stroke-linecap="round" stroke-linejoin="round"/>
<path d="M387.021 148.558C387.361 148.558 387.687 148.423 387.928 148.183C388.168 147.942 388.303 147.616 388.303 147.276V112.849C388.303 112.509 388.168 112.183 387.928 111.942C387.687 111.702 387.361 111.566 387.021 111.566H383.677V45.7998C383.677 43.6292 383.25 41.4798 382.419 39.4745C381.588 37.4692 380.37 35.6473 378.834 34.1129C377.299 32.5784 375.477 31.3615 373.471 30.5316C371.465 29.7017 369.316 29.2752 367.145 29.2764H205.732C203.561 29.2752 201.411 29.7017 199.406 30.5316C197.4 31.3615 195.577 32.5784 194.042 34.1129C192.507 35.6473 191.289 37.4692 190.458 39.4745C189.627 41.4798 189.199 43.6292 189.199 45.7998V385.168C189.199 387.338 189.627 389.488 190.458 391.493C191.289 393.498 192.507 395.32 194.042 396.855C195.577 398.389 197.4 399.606 199.406 400.436C201.411 401.266 203.561 401.692 205.732 401.691H367.145C369.316 401.692 371.465 401.266 373.471 400.436C375.477 399.606 377.299 398.389 378.834 396.855C380.37 395.32 381.588 393.498 382.419 391.493C383.25 389.488 383.677 387.338 383.677 385.168V178.182H387.021C387.361 178.182 387.687 178.047 387.928 177.807C388.168 177.566 388.303 177.24 388.303 176.9V161.553C388.303 161.212 388.168 160.886 387.928 160.646C387.687 160.405 387.361 160.27 387.021 160.27H383.677V148.558H387.021ZM378.096 372.289C378.051 375.46 376.75 378.484 374.478 380.696C372.206 382.909 369.148 384.129 365.977 384.089H206.899C203.729 384.129 200.672 382.908 198.401 380.696C196.131 378.483 194.832 375.459 194.79 372.289V49.3734C194.832 46.2031 196.131 43.1792 198.401 40.9665C200.672 38.7538 203.729 37.5333 206.899 37.5735H269.605L272.215 42.412C273.623 44.9497 275.684 47.0645 278.185 48.5369C280.687 50.0093 283.536 50.7858 286.438 50.7858C289.341 50.7858 292.19 50.0093 294.691 48.5369C297.192 47.0645 299.254 44.9497 300.662 42.412L303.316 37.5735H366.022C369.193 37.5333 372.25 38.7535 374.522 40.966C376.795 43.1784 378.096 46.2023 378.14 49.3734L378.096 372.289Z" fill="#263238" stroke="#263238" stroke-width="1.10919" stroke-linecap="round" stroke-linejoin="round"/>
<path d="M290.758 39.4211C290.758 38.5674 290.505 37.7328 290.031 37.0229C289.556 36.3131 288.882 35.7598 288.094 35.4331C287.305 35.1064 286.437 35.0209 285.599 35.1874C284.762 35.354 283.993 35.7651 283.389 36.3688C282.786 36.9725 282.375 37.7416 282.208 38.579C282.041 39.4163 282.127 40.2843 282.454 41.073C282.78 41.8618 283.334 42.5359 284.043 43.0103C284.753 43.4846 285.588 43.7377 286.442 43.7377C287.009 43.7389 287.571 43.628 288.095 43.4115C288.619 43.195 289.095 42.8771 289.497 42.476C289.898 42.075 290.216 41.5986 290.432 41.0744C290.649 40.5502 290.759 39.9883 290.758 39.4211Z" fill="white" stroke="#263238" stroke-width="1.10919" stroke-linecap="round" stroke-linejoin="round"/>
<path d="M309.117 61.3154H211.816C209.848 61.3154 207.96 62.0973 206.568 63.4891C205.176 64.8809 204.395 66.7686 204.395 68.7368V108.604L213.125 99.2716H309.117C311.085 99.2716 312.973 98.4898 314.365 97.098C315.756 95.7062 316.538 93.8185 316.538 91.8502V68.7368C316.538 66.7686 315.756 64.8809 314.365 63.4891C312.973 62.0973 311.085 61.3154 309.117 61.3154Z" fill="#A3A3A3"/>
<path d="M225.892 87.917C231.577 86.9912 235.435 81.6322 234.509 75.9474C233.583 70.2626 228.224 66.4046 222.539 67.3305C216.855 68.2563 212.997 73.6153 213.922 79.3001C214.848 84.9849 220.207 88.8428 225.892 87.917Z" fill="white"/>
<path d="M229.48 77.8664C229.48 77.8664 230.577 76.4069 230.825 77.8664C231.072 79.326 228.949 81.157 228.949 81.157L229.48 77.8664Z" fill="white" stroke="#263238" stroke-width="1.10919" stroke-linecap="round" stroke-linejoin="round"/>
<path d="M218.989 77.8664C218.989 77.8664 217.901 76.4069 217.653 77.8664C217.405 79.326 219.519 81.157 219.519 81.157L218.989 77.8664Z" fill="white" stroke="#263238" stroke-width="1.10919" stroke-linecap="round" stroke-linejoin="round"/>
<path d="M224.604 70.6743C224.604 70.6743 220.473 70.3559 219.518 73.1069C218.562 75.8578 219.208 80.3071 219.518 81.1563C219.827 82.0055 222.49 86.1275 223.224 86.4636C223.958 86.7998 225.771 86.6759 226.081 86.2513C226.391 85.8267 229.053 81.9082 229.257 80.5371C229.343 78.514 229.305 76.4875 229.142 74.4691C229.103 73.7572 228.864 73.0707 228.453 72.4886C228.041 71.9064 227.474 71.4523 226.815 71.1785C226.112 70.8873 225.364 70.7168 224.604 70.6743Z" fill="white" stroke="#263238" stroke-width="1.10919" stroke-linecap="round" stroke-linejoin="round"/>
<path d="M229.141 74.4514C229.103 73.7395 228.864 73.053 228.452 72.4709C228.041 71.8887 227.473 71.4346 226.815 71.1608C226.11 70.8756 225.363 70.7112 224.603 70.6743C224.603 70.6743 220.473 70.3559 219.517 73.1069C219.069 74.6749 218.91 76.3115 219.048 77.9365C219.261 78.1842 219.933 78.9184 219.845 77.9896C219.721 76.8928 219.597 73.5668 220.455 72.8769C221.313 72.1869 221.428 71.5412 222.64 72.5142C223.852 73.4872 223.737 74.3364 224.957 73.7349C226.178 73.1334 226.417 71.7889 227.505 72.2754C228.593 72.7619 228.239 75.0706 228.239 76.1674C228.239 77.2643 228.239 79.3253 228.973 78.3523C229.107 78.1488 229.214 77.9288 229.292 77.6977C229.256 76.5832 229.194 75.389 229.141 74.4514Z" fill="#263238" stroke="#263238" stroke-width="1.10919" stroke-linecap="round" stroke-linejoin="round"/>
<path d="M222.848 85.7819C222.848 85.7819 224.157 83.1283 224.988 84.119C225.507 84.7333 225.881 85.4556 226.085 86.233C225.584 86.5676 224.977 86.7064 224.381 86.6233C223.784 86.5401 223.238 86.2407 222.848 85.7819Z" fill="#263238" stroke="#263238" stroke-width="1.10919" stroke-linecap="round" stroke-linejoin="round"/>
<path d="M223.441 70.4721C223.236 69.9981 222.909 69.5864 222.495 69.2779L221.902 68.9241C221.902 68.9241 223.326 68.3315 223.795 68.8091C224.094 69.1049 224.372 69.4211 224.627 69.7556C224.627 69.7556 224.866 68.0926 225.458 68.6853C225.795 69.0253 226.153 69.3444 226.529 69.6406C226.529 69.6406 224.866 70.1094 224.866 71.3036" fill="#263238"/>
<path d="M223.441 70.4721C223.236 69.9981 222.909 69.5864 222.495 69.2779L221.902 68.9241C221.902 68.9241 223.326 68.3315 223.795 68.8091C224.094 69.1049 224.372 69.4211 224.627 69.7556C224.627 69.7556 224.866 68.0926 225.458 68.6853C225.795 69.0253 226.153 69.3444 226.529 69.6406C226.529 69.6406 224.866 70.1094 224.866 71.3036" stroke="#263238" stroke-width="1.10919" stroke-linecap="round" stroke-linejoin="round"/>
<path d="M240.801 70.1826H262.419" stroke="white" stroke-width="2.21839" stroke-linecap="round" stroke-linejoin="round"/>
<path d="M240.801 77.7061H306.974" stroke="white" stroke-width="1.10919" stroke-linecap="round" stroke-linejoin="round"/>
<path d="M240.801 83.9365H306.974" stroke="white" stroke-width="1.10919" stroke-linecap="round" stroke-linejoin="round"/>
<path d="M240.801 90.8154H306.974" stroke="white" stroke-width="1.10919" stroke-linecap="round" stroke-linejoin="round"/>
<path d="M360.759 115.194H263.405C262.431 115.194 261.466 115.386 260.566 115.759C259.666 116.132 258.849 116.679 258.16 117.369C257.472 118.058 256.926 118.876 256.554 119.776C256.182 120.677 255.991 121.642 255.992 122.616V145.765C255.992 147.731 256.773 149.618 258.163 151.009C259.553 152.401 261.438 153.184 263.405 153.186H359.405L368.18 162.483V122.598C368.175 120.633 367.392 118.75 366 117.362C364.609 115.974 362.724 115.194 360.759 115.194Z" fill="#0187FF"/>
<path d="M292.445 124.034H314.064" stroke="#263238" stroke-width="2.21839" stroke-linecap="round" stroke-linejoin="round"/>
<path d="M292.445 131.565H358.619" stroke="#263238" stroke-width="1.10919" stroke-linecap="round" stroke-linejoin="round"/>
<path d="M292.445 137.796H358.619" stroke="#263238" stroke-width="1.10919" stroke-linecap="round" stroke-linejoin="round"/>
<path d="M292.445 144.675H358.619" stroke="#263238" stroke-width="1.10919" stroke-linecap="round" stroke-linejoin="round"/>
<path d="M276.292 144.103C282.052 144.103 286.721 139.434 286.721 133.674C286.721 127.914 282.052 123.245 276.292 123.245C270.532 123.245 265.863 127.914 265.863 133.674C265.863 139.434 270.532 144.103 276.292 144.103Z" fill="white"/>
<path d="M274.98 125.746C273.9 125.681 272.829 125.978 271.937 126.59C271.044 127.202 270.382 128.094 270.053 129.125C268.833 132.39 268.146 135.831 268.019 139.315C268.019 141.473 272.291 143.18 274.626 143.357C276.961 143.534 282.216 143.446 284.02 140.571C285.825 137.696 282.897 131.858 282.171 128.267C281.446 124.675 277.492 125.569 274.98 125.746Z" fill="#263238" stroke="#263238" stroke-width="1.10919" stroke-linecap="round" stroke-linejoin="round"/>
<path d="M281.55 132.956C281.55 132.956 282.647 131.497 282.886 132.956C283.125 134.416 281.02 136.238 281.02 136.238L281.55 132.956Z" fill="white" stroke="#263238" stroke-width="1.10919" stroke-linecap="round" stroke-linejoin="round"/>
<path d="M271.066 132.956C271.066 132.956 269.969 131.497 269.73 132.956C269.491 134.416 271.596 136.238 271.596 136.238L271.066 132.956Z" fill="white" stroke="#263238" stroke-width="1.10919" stroke-linecap="round" stroke-linejoin="round"/>
<path d="M276.677 125.807C276.677 125.807 272.546 125.489 271.59 128.24C270.635 130.991 271.272 135.44 271.59 136.28C271.909 137.121 274.554 141.26 275.297 141.588C276.04 141.915 277.835 141.8 278.154 141.375C278.472 140.951 281.117 137.032 281.329 135.661C281.416 133.638 281.378 131.611 281.214 129.593C281.177 128.881 280.938 128.194 280.527 127.612C280.115 127.029 279.547 126.575 278.888 126.303C278.184 126.014 277.436 125.847 276.677 125.807Z" fill="white" stroke="#263238" stroke-width="1.10919" stroke-linecap="round" stroke-linejoin="round"/>
<path d="M273.539 126.826C273.539 126.826 280.218 132.955 281.554 132.955C282.889 132.955 283.066 128.444 281.624 126.286C280.183 124.128 273.327 122.872 273.539 126.826Z" fill="#263238" stroke="#263238" stroke-width="1.10919" stroke-linecap="round" stroke-linejoin="round"/>
<path d="M309.117 170.636H211.816C209.849 170.636 207.963 171.416 206.571 172.806C205.18 174.196 204.397 176.082 204.395 178.048V217.915L213.169 208.618H309.117C310.091 208.62 311.056 208.429 311.956 208.057C312.857 207.685 313.675 207.139 314.364 206.451C315.053 205.762 315.6 204.945 315.973 204.045C316.346 203.145 316.538 202.18 316.538 201.206V178.048C316.538 177.074 316.346 176.11 315.973 175.21C315.6 174.31 315.053 173.492 314.364 172.804C313.675 172.115 312.857 171.569 311.956 171.197C311.056 170.825 310.091 170.635 309.117 170.636Z" fill="#A3A3A3"/>
<path d="M233.832 190.95C236.05 185.634 233.539 179.527 228.223 177.309C222.908 175.091 216.801 177.602 214.583 182.917C212.365 188.233 214.875 194.34 220.191 196.558C225.506 198.776 231.614 196.265 233.832 190.95Z" fill="white"/>
<path d="M229.48 187.187C229.48 187.187 230.577 185.727 230.825 187.187C231.072 188.646 228.949 190.468 228.949 190.468L229.48 187.187Z" fill="white" stroke="#263238" stroke-width="1.10919" stroke-linecap="round" stroke-linejoin="round"/>
<path d="M218.989 187.187C218.989 187.187 217.901 185.727 217.653 187.187C217.405 188.646 219.519 190.468 219.519 190.468L218.989 187.187Z" fill="white" stroke="#263238" stroke-width="1.10919" stroke-linecap="round" stroke-linejoin="round"/>
<path d="M224.604 179.987C224.604 179.987 220.473 179.668 219.518 182.419C218.562 185.17 219.208 189.62 219.518 190.469C219.827 191.318 222.49 195.449 223.224 195.776C223.958 196.103 225.771 195.988 226.081 195.564C226.391 195.139 229.053 191.23 229.257 189.85C229.343 187.826 229.305 185.8 229.142 183.782C229.105 183.07 228.866 182.384 228.454 181.803C228.042 181.222 227.474 180.77 226.815 180.5C226.111 180.209 225.364 180.036 224.604 179.987Z" fill="white" stroke="#263238" stroke-width="1.10919" stroke-linecap="round" stroke-linejoin="round"/>
<path d="M229.141 183.764C229.104 183.053 228.866 182.367 228.454 181.786C228.042 181.205 227.474 180.753 226.815 180.482C226.11 180.198 225.363 180.031 224.603 179.987C224.603 179.987 220.473 179.668 219.517 182.419C219.069 183.99 218.91 185.63 219.048 187.258C219.261 187.497 219.933 188.24 219.845 187.311C219.721 186.214 219.597 182.888 220.455 182.198C221.313 181.508 221.428 180.863 222.64 181.836C223.852 182.809 223.737 183.658 224.957 183.047C226.178 182.437 226.417 181.101 227.505 181.588C228.593 182.074 228.239 184.383 228.239 185.48C228.239 186.577 228.239 188.647 228.973 187.674C229.107 187.467 229.214 187.244 229.292 187.01C229.256 185.905 229.194 184.693 229.141 183.764Z" fill="#263238" stroke="#263238" stroke-width="1.10919" stroke-linecap="round" stroke-linejoin="round"/>
<path d="M222.848 195.098C222.848 195.098 224.157 192.445 224.988 193.435C225.505 194.051 225.879 194.773 226.085 195.549C225.584 195.884 224.977 196.023 224.381 195.94C223.784 195.856 223.238 195.557 222.848 195.098Z" fill="#263238" stroke="#263238" stroke-width="1.10919" stroke-linecap="round" stroke-linejoin="round"/>
<path d="M223.441 179.768C223.237 179.296 222.91 178.887 222.495 178.583L221.902 178.229C221.902 178.229 223.326 177.636 223.795 178.105C224.093 178.405 224.371 178.724 224.627 179.06C224.627 179.06 224.866 177.397 225.458 177.99C225.794 178.329 226.151 178.645 226.529 178.936C226.529 178.936 224.866 179.414 224.866 180.599" fill="#263238"/>
<path d="M223.441 179.768C223.237 179.296 222.91 178.887 222.495 178.583L221.902 178.229C221.902 178.229 223.326 177.636 223.795 178.105C224.093 178.405 224.371 178.724 224.627 179.06C224.627 179.06 224.866 177.397 225.458 177.99C225.794 178.329 226.151 178.645 226.529 178.936C226.529 178.936 224.866 179.414 224.866 180.599" stroke="#263238" stroke-width="1.10919" stroke-linecap="round" stroke-linejoin="round"/>
<path d="M240.801 179.495H262.419" stroke="white" stroke-width="2.21839" stroke-linecap="round" stroke-linejoin="round"/>
<path d="M240.801 187.026H306.974" stroke="white" stroke-width="1.10919" stroke-linecap="round" stroke-linejoin="round"/>
<path d="M240.801 193.257H306.974" stroke="white" stroke-width="1.10919" stroke-linecap="round" stroke-linejoin="round"/>
<path d="M240.801 200.128H306.974" stroke="white" stroke-width="1.10919" stroke-linecap="round" stroke-linejoin="round"/>
<path d="M309.116 225.066H211.815C210.836 225.058 209.864 225.243 208.956 225.613C208.049 225.982 207.223 226.527 206.528 227.217C205.832 227.907 205.28 228.728 204.903 229.633C204.526 230.537 204.332 231.507 204.332 232.487V272.354L213.107 263.057H309.116C311.085 263.057 312.972 262.275 314.364 260.884C315.756 259.492 316.538 257.604 316.538 255.636V232.487C316.539 231.512 316.348 230.547 315.975 229.646C315.603 228.745 315.056 227.926 314.367 227.237C313.677 226.547 312.859 226.001 311.958 225.628C311.057 225.256 310.091 225.065 309.116 225.066Z" fill="#A3A3A3"/>
<path d="M233.828 245.364C236.046 240.048 233.535 233.941 228.219 231.723C222.904 229.505 216.797 232.016 214.579 237.331C212.361 242.647 214.872 248.754 220.187 250.972C225.503 253.19 231.61 250.679 233.828 245.364Z" fill="white"/>
<path d="M229.48 241.614C229.48 241.614 230.577 240.154 230.825 241.614C231.072 243.073 228.949 244.895 228.949 244.895L229.48 241.614Z" fill="white" stroke="#263238" stroke-width="1.10919" stroke-linecap="round" stroke-linejoin="round"/>
<path d="M218.989 241.613C218.989 241.613 217.901 240.153 217.653 241.613C217.405 243.072 219.519 244.894 219.519 244.894L218.989 241.613Z" fill="white" stroke="#263238" stroke-width="1.10919" stroke-linecap="round" stroke-linejoin="round"/>
<path d="M224.604 234.413C224.604 234.413 220.473 234.094 219.518 236.854C218.562 239.614 219.208 244.045 219.518 244.895C219.827 245.744 222.49 249.875 223.224 250.202C223.958 250.529 225.771 250.414 226.081 249.99C226.391 249.565 229.053 245.646 229.257 244.267C229.343 242.243 229.305 240.217 229.142 238.198C229.105 237.487 228.866 236.801 228.454 236.22C228.042 235.639 227.474 235.187 226.815 234.917C226.111 234.629 225.364 234.459 224.604 234.413Z" fill="white" stroke="#263238" stroke-width="1.10919" stroke-linecap="round" stroke-linejoin="round"/>
<path d="M229.141 238.19C229.104 237.478 228.866 236.792 228.454 236.211C228.042 235.63 227.474 235.178 226.815 234.908C226.11 234.624 225.363 234.456 224.603 234.413C224.603 234.413 220.473 234.094 219.517 236.854C219.069 238.422 218.91 240.059 219.048 241.684C219.261 241.931 219.933 242.665 219.845 241.737C219.721 240.64 219.597 237.358 220.455 236.624C221.313 235.89 221.428 235.288 222.64 236.261C223.852 237.234 223.737 238.083 224.957 237.473C226.178 236.863 226.417 235.527 227.505 236.014C228.593 236.5 228.239 238.818 228.239 239.906C228.239 240.994 228.239 243.072 228.973 242.099C229.105 241.895 229.212 241.675 229.292 241.445C229.256 240.33 229.194 239.118 229.141 238.19Z" fill="#263238" stroke="#263238" stroke-width="1.10919" stroke-linecap="round" stroke-linejoin="round"/>
<path d="M222.848 249.524C222.848 249.524 224.157 246.914 224.988 247.869C225.507 248.484 225.881 249.206 226.085 249.984C225.582 250.315 224.976 250.451 224.379 250.367C223.783 250.282 223.238 249.982 222.848 249.524Z" fill="#263238" stroke="#263238" stroke-width="1.10919" stroke-linecap="round" stroke-linejoin="round"/>
<path d="M223.441 234.213C223.237 233.741 222.91 233.332 222.495 233.028L221.902 232.674C221.902 232.674 223.326 232.081 223.795 232.55C224.093 232.85 224.371 233.169 224.627 233.506C224.627 233.506 224.866 231.843 225.458 232.435C225.794 232.774 226.151 233.09 226.529 233.382C226.529 233.382 224.866 233.859 224.866 235.045" fill="#263238"/>
<path d="M223.441 234.213C223.237 233.741 222.91 233.332 222.495 233.028L221.902 232.674C221.902 232.674 223.326 232.081 223.795 232.55C224.093 232.85 224.371 233.169 224.627 233.506C224.627 233.506 224.866 231.843 225.458 232.435C225.794 232.774 226.151 233.09 226.529 233.382C226.529 233.382 224.866 233.859 224.866 235.045" stroke="#263238" stroke-width="1.10919" stroke-linecap="round" stroke-linejoin="round"/>
<path d="M240.801 233.917H262.419" stroke="white" stroke-width="2.21839" stroke-linecap="round" stroke-linejoin="round"/>
<path d="M240.801 241.456H306.974" stroke="white" stroke-width="1.10919" stroke-linecap="round" stroke-linejoin="round"/>
<path d="M240.801 247.683H306.974" stroke="white" stroke-width="1.10919" stroke-linecap="round" stroke-linejoin="round"/>
<path d="M240.801 254.554H306.974" stroke="white" stroke-width="1.10919" stroke-linecap="round" stroke-linejoin="round"/>
<path d="M309.117 327.632H211.816C209.848 327.632 207.96 328.414 206.568 329.806C205.176 331.197 204.395 333.085 204.395 335.053V374.92L213.169 365.623H309.117C310.092 365.625 311.057 365.433 311.958 365.061C312.859 364.688 313.678 364.142 314.367 363.452C315.057 362.763 315.603 361.944 315.976 361.043C316.348 360.143 316.539 359.177 316.538 358.202V335.053C316.538 333.085 315.756 331.197 314.365 329.806C312.973 328.414 311.085 327.632 309.117 327.632Z" fill="#A3A3A3"/>
<path d="M225.908 354.233C231.593 353.308 235.45 347.949 234.525 342.264C233.599 336.579 228.24 332.721 222.555 333.647C216.87 334.573 213.012 339.932 213.938 345.617C214.864 351.301 220.223 355.159 225.908 354.233Z" fill="white"/>
<path d="M229.48 344.19C229.48 344.19 230.577 342.73 230.825 344.19C231.072 345.649 228.949 347.471 228.949 347.471L229.48 344.19Z" fill="white" stroke="#263238" stroke-width="1.10919" stroke-linecap="round" stroke-linejoin="round"/>
<path d="M218.989 344.191C218.989 344.191 217.901 342.731 217.653 344.191C217.405 345.65 219.519 347.472 219.519 347.472L218.989 344.191Z" fill="white" stroke="#263238" stroke-width="1.10919" stroke-linecap="round" stroke-linejoin="round"/>
<path d="M224.604 336.991C224.604 336.991 220.473 336.672 219.518 339.423C218.562 342.174 219.208 346.624 219.518 347.473C219.827 348.322 222.49 352.444 223.224 352.78C223.958 353.116 225.771 352.992 226.081 352.568C226.391 352.143 229.053 348.233 229.257 346.854C229.343 344.83 229.305 342.804 229.142 340.785C229.103 340.074 228.864 339.387 228.453 338.805C228.041 338.223 227.474 337.769 226.815 337.495C226.11 337.208 225.364 337.037 224.604 336.991Z" fill="white" stroke="#263238" stroke-width="1.10919" stroke-linecap="round" stroke-linejoin="round"/>
<path d="M229.141 340.76C229.103 340.048 228.864 339.362 228.452 338.779C228.041 338.197 227.473 337.743 226.815 337.469C226.109 337.188 225.362 337.024 224.603 336.983C224.603 336.983 220.473 336.664 219.517 339.415C219.069 340.987 218.91 342.626 219.048 344.254C219.261 344.493 219.933 345.236 219.845 344.298C219.721 343.21 219.597 339.92 220.455 339.194C221.313 338.469 221.428 337.85 222.64 338.823C223.852 339.796 223.737 340.654 224.957 340.043C226.178 339.433 226.417 338.097 227.505 338.584C228.593 339.07 228.239 341.379 228.239 342.476C228.239 343.573 228.239 345.643 228.973 344.67C229.105 344.462 229.212 344.239 229.292 344.006C229.256 342.901 229.194 341.698 229.141 340.76Z" fill="#263238" stroke="#263238" stroke-width="1.10919" stroke-linecap="round" stroke-linejoin="round"/>
<path d="M222.848 352.095C222.848 352.095 224.157 349.486 224.988 350.432C225.505 351.048 225.879 351.77 226.085 352.546C225.584 352.881 224.977 353.02 224.381 352.937C223.784 352.854 223.238 352.554 222.848 352.095Z" fill="#263238" stroke="#263238" stroke-width="1.10919" stroke-linecap="round" stroke-linejoin="round"/>
<path d="M223.441 336.784C223.237 336.312 222.91 335.903 222.495 335.599L221.902 335.245C221.902 335.245 223.326 334.643 223.795 335.121C224.092 335.419 224.369 335.735 224.627 336.068C224.627 336.068 224.866 334.413 225.458 335.006C225.794 335.345 226.151 335.661 226.529 335.953C226.529 335.953 224.866 336.43 224.866 337.616" fill="#263238"/>
<path d="M223.441 336.784C223.237 336.312 222.91 335.903 222.495 335.599L221.902 335.245C221.902 335.245 223.326 334.643 223.795 335.121C224.092 335.419 224.369 335.735 224.627 336.068C224.627 336.068 224.866 334.413 225.458 335.006C225.794 335.345 226.151 335.661 226.529 335.953C226.529 335.953 224.866 336.43 224.866 337.616" stroke="#263238" stroke-width="1.10919" stroke-linecap="round" stroke-linejoin="round"/>
<path d="M240.801 336.487H262.419" stroke="white" stroke-width="2.21839" stroke-linecap="round" stroke-linejoin="round"/>
<path d="M240.801 344.03H306.974" stroke="white" stroke-width="1.10919" stroke-linecap="round" stroke-linejoin="round"/>
<path d="M240.801 350.245H306.974" stroke="white" stroke-width="1.10919" stroke-linecap="round" stroke-linejoin="round"/>
<path d="M240.801 357.128H306.974" stroke="white" stroke-width="1.10919" stroke-linecap="round" stroke-linejoin="round"/>
<path d="M360.759 279.366H263.405C262.43 279.367 261.465 279.56 260.565 279.934C259.665 280.309 258.848 280.856 258.16 281.546C257.471 282.236 256.926 283.055 256.554 283.956C256.182 284.857 255.991 285.822 255.992 286.796V309.945C255.991 310.919 256.182 311.884 256.554 312.785C256.926 313.685 257.472 314.503 258.16 315.192C258.849 315.882 259.666 316.428 260.566 316.802C261.466 317.175 262.431 317.367 263.405 317.367H359.405L368.18 326.663V286.796C368.181 285.821 367.99 284.855 367.618 283.954C367.245 283.052 366.699 282.233 366.01 281.543C365.32 280.853 364.502 280.305 363.601 279.932C362.7 279.558 361.734 279.366 360.759 279.366Z" fill="#0187FF"/>
<path d="M292.445 288.233H314.064" stroke="#263238" stroke-width="2.21839" stroke-linecap="round" stroke-linejoin="round"/>
<path d="M292.445 295.765H358.619" stroke="#263238" stroke-width="1.10919" stroke-linecap="round" stroke-linejoin="round"/>
<path d="M292.445 301.987H358.619" stroke="#263238" stroke-width="1.10919" stroke-linecap="round" stroke-linejoin="round"/>
<path d="M292.445 308.866H358.619" stroke="#263238" stroke-width="1.10919" stroke-linecap="round" stroke-linejoin="round"/>
<path d="M276.292 308.302C282.052 308.302 286.721 303.633 286.721 297.873C286.721 292.113 282.052 287.444 276.292 287.444C270.532 287.444 265.863 292.113 265.863 297.873C265.863 303.633 270.532 308.302 276.292 308.302Z" fill="white"/>
<path d="M274.98 289.946C273.9 289.881 272.829 290.178 271.937 290.79C271.044 291.402 270.382 292.294 270.053 293.325C268.832 296.59 268.145 300.031 268.019 303.515C268.019 305.673 272.291 307.381 274.626 307.558C276.961 307.734 282.216 307.646 284.02 304.771C285.825 301.896 282.897 296.058 282.171 292.458C281.446 288.858 277.492 289.769 274.98 289.946Z" fill="#263238" stroke="#263238" stroke-width="1.10919" stroke-linecap="round" stroke-linejoin="round"/>
<path d="M281.55 297.156C281.55 297.156 282.647 295.696 282.886 297.156C283.125 298.615 281.02 300.437 281.02 300.437L281.55 297.156Z" fill="white" stroke="#263238" stroke-width="1.10919" stroke-linecap="round" stroke-linejoin="round"/>
<path d="M271.066 297.156C271.066 297.156 269.969 295.696 269.73 297.156C269.491 298.615 271.596 300.437 271.596 300.437L271.066 297.156Z" fill="white" stroke="#263238" stroke-width="1.10919" stroke-linecap="round" stroke-linejoin="round"/>
<path d="M276.677 289.956C276.677 289.956 272.546 289.637 271.59 292.397C270.635 295.157 271.272 299.588 271.59 300.438C271.909 301.287 274.554 305.418 275.297 305.745C276.04 306.072 277.835 305.957 278.154 305.533C278.472 305.108 281.117 301.189 281.329 299.809C281.416 297.786 281.378 295.76 281.214 293.741C281.177 293.03 280.939 292.344 280.527 291.763C280.115 291.182 279.547 290.73 278.888 290.46C278.183 290.172 277.436 290.002 276.677 289.956Z" fill="white" stroke="#263238" stroke-width="1.10919" stroke-linecap="round" stroke-linejoin="round"/>
<path d="M273.539 291.029C273.539 291.029 280.218 297.159 281.554 297.159C282.889 297.159 283.066 292.647 281.624 290.489C280.183 288.331 273.327 287.075 273.539 291.029Z" fill="#263238" stroke="#263238" stroke-width="1.10919" stroke-linecap="round" stroke-linejoin="round"/>
<path d="M385.658 380.288L384.544 400.014C384.723 400.401 384.98 400.746 385.3 401.028C385.62 401.31 385.995 401.522 386.402 401.65C387.596 401.862 413.628 401.65 413.628 401.65C413.81 400.593 413.737 399.507 413.416 398.483C413.223 397.81 412.861 397.197 412.366 396.702C411.871 396.207 411.258 395.846 410.585 395.653C409.276 395.326 400.236 391.186 399.466 390.858C398.697 390.531 398.272 385.303 398.272 385.303L385.658 380.288Z" fill="white" stroke="#263238" stroke-width="1.10919" stroke-miterlimit="10"/>
<path d="M413.631 401.645C413.737 400.945 413.737 400.232 413.631 399.531L384.582 398.753L384.512 400.009C384.69 400.396 384.948 400.742 385.268 401.023C385.588 401.305 385.963 401.517 386.369 401.645C387.599 401.858 413.631 401.645 413.631 401.645Z" fill="white" stroke="#263238" stroke-width="1.10919" stroke-miterlimit="10"/>
<path d="M391.063 280.354C391.063 280.354 393.301 328.757 393.053 330.243L384.614 381.122C384.614 381.122 391.806 385.094 395.282 385.837C397.988 386.344 400.724 386.675 403.473 386.828C403.473 386.828 414.893 340.415 415.388 337.691C415.883 334.966 409.674 276.179 409.674 276.179L391.063 280.354Z" fill="#263238" stroke="#263238" stroke-width="1.10919" stroke-miterlimit="10"/>
<path d="M391.41 375.065C391.41 375.065 381.282 389.006 382.476 390.421C383.67 391.837 392.498 400.222 394.683 401.204C396.867 402.186 416.796 401.204 416.796 401.204C416.999 400.635 417.11 400.038 417.124 399.435C417.124 398.55 417.018 395.189 415.823 394.207C414.629 393.225 405.58 388.979 405.209 388.325C404.837 387.67 404.448 382.336 404.448 382.336L391.41 375.065Z" fill="white" stroke="#263238" stroke-width="1.10919" stroke-miterlimit="10"/>
<path d="M416.788 401.203C416.991 400.635 417.101 400.037 417.115 399.434V399.027L403.281 399.549C403.281 399.549 399.035 400.195 396.753 398.346C394.833 396.798 386.439 389.147 383.75 386.688C382.733 388.545 382.14 389.987 382.476 390.394C383.679 391.809 392.498 400.195 394.683 401.176C396.868 402.158 416.788 401.203 416.788 401.203Z" fill="white" stroke="#263238" stroke-width="1.10919" stroke-miterlimit="10"/>
<path d="M383.891 257.772C383.891 257.772 385.386 272.164 386.624 274.402C387.862 276.64 389.853 280.107 389.853 280.107L408.658 332.977L389.304 375.666C389.304 375.666 403.457 384.847 406.429 385.838C407.704 386.341 409.039 386.674 410.401 386.829C410.401 386.829 433.231 333.472 433.231 329.748C433.231 326.024 417.309 272.668 417.309 272.668L418.388 254.296L383.891 257.772Z" fill="#263238" stroke="#263238" stroke-width="1.10919" stroke-miterlimit="10"/>
<path d="M402.715 262.243L413.153 266.418L404.502 259.554L410.463 262.243" stroke="#696969" stroke-width="1.10919" stroke-linecap="round" stroke-linejoin="round"/>
<path d="M396.717 298.507L408.685 332.978L391.312 372.933" stroke="#696969" stroke-width="1.10919" stroke-miterlimit="10"/>
<path d="M394.294 291.526L395.523 295.082" stroke="#696969" stroke-width="1.10919" stroke-miterlimit="10"/>
<path d="M431.921 231.065C431.921 231.065 437.794 225.545 438.997 224.873C440.2 224.201 444.986 222.759 445.331 221.114C445.676 219.468 445.216 211.384 444.747 211.728C444.278 212.073 438.06 220.884 438.06 220.884L429.957 227.226L431.921 231.065Z" fill="white" stroke="#263238" stroke-width="1.10919" stroke-miterlimit="10"/>
<path d="M440.266 218.272L439.559 223.668" stroke="#263238" stroke-width="1.10919" stroke-miterlimit="10"/>
<path d="M442.14 215.455L442.379 222.036" stroke="#263238" stroke-width="1.10919" stroke-miterlimit="10"/>
<path d="M444.039 213.226C444.039 213.226 443.924 220.152 444.039 220.859V213.226Z" fill="white"/>
<path d="M444.039 213.226C444.039 213.226 443.924 220.152 444.039 220.859" stroke="#263238" stroke-width="1.10919" stroke-miterlimit="10"/>
<path d="M445.659 219.217C445.659 219.217 447.658 216.75 447.189 215.113C447.059 214.639 446.821 214.202 446.495 213.835C446.168 213.468 445.761 213.182 445.305 212.999L445.659 219.217Z" fill="white" stroke="#263238" stroke-width="1.10919" stroke-miterlimit="10"/>
<path d="M431.225 224.733C431.579 224.963 434.392 229.307 434.392 229.307L430.854 234.004C430.854 234.004 432.623 237.294 431.561 238.117C430.5 238.939 421.698 243.512 421.698 243.512L418.762 231.659C418.762 231.659 425.334 227.546 425.688 227.67C426.036 227.851 426.352 228.087 426.625 228.369L431.225 224.733Z" fill="#0187FF" stroke="#263238" stroke-width="1.10919" stroke-miterlimit="10"/>
<path d="M434.961 223.149L436.182 223.99L449.114 205.485L447.893 204.636L434.961 223.149Z" fill="#263238" stroke="#263238" stroke-width="1.10919" stroke-miterlimit="10"/>
<path d="M398.168 189.077C397.443 189.431 387.191 201.85 383.405 206.706C379.619 211.562 379.991 219.488 380.168 223.805C380.344 228.121 378.398 260.16 378.398 260.16C378.398 260.16 394.055 258.904 403.414 258.002C412.772 257.099 426.085 256.232 426.085 256.232C426.085 256.232 422.308 239.682 420.512 232.296C418.716 224.91 415.833 214.305 413.851 209.298C412.483 205.934 410.857 202.681 408.986 199.568L398.168 189.077Z" fill="#0187FF" stroke="#263238" stroke-width="1.10919" stroke-miterlimit="10"/>
<path d="M417.24 189.616L411.482 196.091L402.636 184.937L407.855 178.816C407.855 178.816 410.916 175.578 412.72 175.932C414.525 176.286 417.24 189.616 417.24 189.616Z" fill="white" stroke="#263238" stroke-width="1.10919" stroke-miterlimit="10"/>
<path d="M411.129 182.956L414.641 192.748L417.241 189.617L411.129 182.956Z" fill="#263238" stroke="#263238" stroke-width="1.10919" stroke-miterlimit="10"/>
<path d="M410.43 178.639C410.43 178.639 408.272 182.054 406.477 181.337C404.681 180.621 399.816 175.393 397.631 168.953C395.446 162.514 403.389 161.391 404.645 158.878C405.902 156.366 406.99 155.995 408.785 147.176C410.581 138.357 430.74 141.78 433.8 146.459C436.861 151.139 436.321 160.497 444.778 157.437C453.234 154.376 462.416 151.139 464.397 158.693C466.378 166.247 459.895 175.428 462.239 178.675C464.583 181.921 472.137 179.559 471.597 182.629C471.058 185.698 467.095 187.671 468.351 188.387C469.607 189.104 476.63 185.512 474.649 188.75C472.668 191.987 468.537 195.41 467.997 193.969C467.458 192.527 467.997 190.731 466.016 191.81C464.034 192.889 458.055 197.206 455.578 194.871C453.101 192.536 456.295 184.07 452.155 183.168C448.015 182.266 437.94 185.15 434.517 185.327C431.094 185.503 430.74 184.442 424.442 181.373C418.144 178.303 410.43 178.639 410.43 178.639Z" fill="#263238" stroke="#263238" stroke-width="1.10919" stroke-miterlimit="10"/>
<path d="M411.844 173.568C411.844 173.568 422.459 174.108 429.296 172.304C432.424 171.574 435.493 170.613 438.478 169.429C438.478 169.429 438.655 176.443 436.859 178.425C435.064 180.406 432.72 182.202 432.72 183.643C432.72 185.085 434.489 187.421 433.436 188.685C432.383 189.95 429.836 189.942 429.119 189.942C428.403 189.942 422.644 195.346 421.026 195.346C419.407 195.346 411.296 184.546 411.128 182.962C411.03 181.044 411.03 179.122 411.128 177.204" fill="white"/>
<path d="M411.844 173.568C411.844 173.568 422.459 174.108 429.296 172.304C432.424 171.574 435.493 170.613 438.478 169.429C438.478 169.429 438.655 176.443 436.859 178.425C435.064 180.406 432.72 182.202 432.72 183.643C432.72 185.085 434.489 187.421 433.436 188.685C432.383 189.95 429.836 189.942 429.119 189.942C428.403 189.942 422.644 195.346 421.026 195.346C419.407 195.346 411.296 184.546 411.128 182.962C411.03 181.044 411.03 179.122 411.128 177.204" stroke="#263238" stroke-width="1.10919" stroke-miterlimit="10"/>
<path d="M430.773 179.897L428.792 182.233C428.167 182.138 427.583 181.868 427.105 181.455C426.628 181.042 426.277 180.502 426.094 179.897" stroke="#263238" stroke-width="1.10919" stroke-miterlimit="10"/>
<path d="M424.078 185.291C424.078 185.291 423.901 188.175 426.245 188.537" stroke="#263238" stroke-width="1.10919" stroke-miterlimit="10"/>
<path d="M428.579 176.837C428.579 176.837 431.816 175.758 433.258 178.456" stroke="#263238" stroke-width="1.10919" stroke-miterlimit="10"/>
<path d="M414.541 176.297C414.541 176.297 411.888 168.336 409.322 171.255C406.757 174.174 408.243 179.216 410.207 180.259C410.788 180.571 411.437 180.734 412.096 180.734C412.755 180.734 413.403 180.571 413.984 180.259" fill="white"/>
<path d="M414.541 176.297C414.541 176.297 411.888 168.336 409.322 171.255C406.757 174.174 408.243 179.216 410.207 180.259C410.788 180.571 411.437 180.734 412.096 180.734C412.755 180.734 413.403 180.571 413.984 180.259" stroke="#263238" stroke-width="1.10919" stroke-miterlimit="10"/>
<path d="M403.356 182.055C403.356 182.055 415.227 193.757 414.855 195.376C414.484 196.995 412.511 198.03 412.511 198.03C412.511 198.03 413.051 201.267 412.157 201.984C411.574 202.427 410.896 202.73 410.176 202.868C410.176 202.868 398.933 191.263 397.447 189.432C395.961 187.601 397.093 186.734 397.987 186.371C398.63 186.134 399.293 185.954 399.968 185.832C399.968 185.832 401.233 181.533 403.356 182.055Z" fill="#0187FF" stroke="#263238" stroke-width="1.10919" stroke-miterlimit="10"/>
<path d="M386.165 208.203C385.473 212.388 385.101 216.62 385.051 220.861C385.051 227.186 387.651 258.269 388.96 259.95C390.27 261.631 395.471 263.108 397.709 261.622C399.947 260.136 419.301 247.663 419.486 245.611C419.672 243.559 416.505 236.12 415.205 235.563C413.905 235.005 412.782 235.191 410.924 236.863C408.804 238.509 406.569 240.002 404.237 241.33C404.237 241.33 402.936 217.509 401.45 211.733C399.964 205.957 399.212 204.851 398.284 204.479" fill="#0187FF"/>
<path d="M386.165 208.203C385.473 212.388 385.101 216.62 385.051 220.861C385.051 227.186 387.651 258.269 388.96 259.95C390.27 261.631 395.471 263.108 397.709 261.622C399.947 260.136 419.301 247.663 419.486 245.611C419.672 243.559 416.505 236.12 415.205 235.563C413.905 235.005 412.782 235.191 410.924 236.863C408.804 238.509 406.569 240.002 404.237 241.33C404.237 241.33 402.936 217.509 401.45 211.733C399.964 205.957 399.212 204.851 398.284 204.479" stroke="#263238" stroke-width="1.10919" stroke-miterlimit="10"/>
<path d="M420.484 232.259C420.484 232.259 425.792 219.548 426.181 218.619C426.57 217.69 427.862 216.195 428.976 216.01C430.091 215.824 438.653 213.966 439.396 213.781C440.139 213.595 440.705 214.524 438.653 215.824C436.601 217.124 431.577 217.69 431.577 217.69L430.825 223.272C430.825 223.272 435.858 219.362 435.858 221.414C435.858 223.466 432.134 224.758 431.577 224.952C431.019 225.147 429.533 227.526 429.003 227.925C428.149 228.315 427.26 228.626 426.349 228.853C426.349 228.853 425.977 231.091 425.234 231.834C424.491 232.577 421.139 235.001 421.139 235.001L420.484 232.259Z" fill="white" stroke="#263238" stroke-width="1.10919" stroke-miterlimit="10"/>
<path d="M426.18 218.625C426.18 218.625 428.338 215.972 428.656 215.972C430.179 217.047 431.635 218.214 433.017 219.466C433.283 219.722 431.62 222.429 431.363 222.862C431.107 223.296 431.009 223.65 430.311 223.393C429.837 223.197 429.396 222.932 429.001 222.606" fill="white"/>
<path d="M426.18 218.625C426.18 218.625 428.338 215.972 428.656 215.972C430.179 217.047 431.635 218.214 433.017 219.466C433.283 219.722 431.62 222.429 431.363 222.862C431.107 223.296 431.009 223.65 430.311 223.393C429.837 223.197 429.396 222.932 429.001 222.606" stroke="#263238" stroke-width="1.10919" stroke-miterlimit="10"/>
<path d="M425.602 220.786C425.602 220.786 427.955 218.132 428.3 218.132C428.644 218.132 431.617 220.485 431.617 220.918C431.617 221.352 431.095 223.979 430.661 224.067C430.046 224.07 429.433 224.011 428.83 223.89" fill="white"/>
<path d="M425.602 220.786C425.602 220.786 427.955 218.132 428.3 218.132C428.644 218.132 431.617 220.485 431.617 220.918C431.617 221.352 431.095 223.979 430.661 224.067C430.046 224.07 429.433 224.011 428.83 223.89" stroke="#263238" stroke-width="1.10919" stroke-miterlimit="10"/>
<path d="M425.516 223.317C426.144 222.63 426.847 222.016 427.612 221.486C428.302 221.133 429.876 222.619 430.832 223.255C431.787 223.892 432.928 224.255 432.406 224.865C431.884 225.476 429.876 224.609 429.443 224.609C428.958 224.529 428.488 224.38 428.045 224.167L426.913 227.572" fill="white"/>
<path d="M425.516 223.317C426.144 222.63 426.847 222.016 427.612 221.486C428.302 221.133 429.876 222.619 430.832 223.255C431.787 223.892 432.928 224.255 432.406 224.865C431.884 225.476 429.876 224.609 429.443 224.609C428.958 224.529 428.488 224.38 428.045 224.167L426.913 227.572" stroke="#263238" stroke-width="1.10919" stroke-miterlimit="10"/>
<path d="M414.278 236.119L420.789 230.909L423.77 236.491L418.179 242.258C418.179 242.258 414.278 241.515 414.278 236.119Z" fill="#0187FF" stroke="#263238" stroke-width="1.10919" stroke-miterlimit="10"/>
<path d="M30.0703 389.442C27.4016 388.603 24.9057 387.291 22.702 385.568C19.7564 383.029 10.4509 376.129 7.76185 374.36C5.0728 372.591 5.40009 380.764 6.31118 384.975C7.04803 388.612 8.59277 392.037 10.8313 394.997C12.5296 397.014 23.6131 401.189 24.8514 401.472C26.0898 401.755 31.0433 401.843 32.0517 401.366C33.0601 400.888 30.9549 392.936 30.0703 389.442Z" fill="white" stroke="#263238" stroke-width="1.10919" stroke-miterlimit="10"/>
<path d="M11.3983 391.556C8.80651 388.23 6.97549 378.031 6.89588 374.121C5.12677 374.537 5.51597 381.286 6.31207 385.001C7.04892 388.638 8.59366 392.063 10.8321 395.023C12.5305 397.04 23.6139 401.215 24.8523 401.498C26.5263 401.719 28.2171 401.784 29.9031 401.693C23.8793 399.579 14.0077 394.899 11.3983 391.556Z" fill="white" stroke="#263238" stroke-width="1.10919" stroke-miterlimit="10"/>
<path d="M150.988 328.834C150.988 328.834 147.927 334.504 146.379 337.795C144.831 341.086 143.505 343.456 143.505 343.456C143.505 343.456 142.027 340.573 140.904 341.112C140.12 341.464 139.302 341.734 138.463 341.917C138.463 341.917 137.065 336.91 134.924 334.283C132.784 331.656 130.97 332.921 128.989 331.17C126.185 328.693 125.053 327.95 123.178 326.446C120.869 324.597 117.339 332.426 117.278 335.38C117.216 338.335 132.35 356.901 136.127 361.979C139.904 367.056 143.717 370.249 146.176 367.162C148.635 364.075 149.803 361.138 151.66 351.24C153.518 341.342 158.056 326.207 150.988 328.834Z" fill="#0187FF" stroke="#263238" stroke-width="1.10919" stroke-miterlimit="10"/>
<path d="M123.159 326.447L116.286 321.29C115.543 319.83 114.048 316.796 113.234 314.682C112.12 311.807 111.633 309.976 109.077 307.977C106.52 305.978 100.47 303.555 99.7004 302.732C98.9308 301.909 98.6212 305.049 100.019 306.509C100.642 307.265 101.428 307.87 102.319 308.278C102.319 308.278 92.3497 307.04 92.3321 307.818C92.3144 308.596 100.806 319.317 103.875 321.803C105.158 322.864 108.024 323.864 109.652 325.031C110.455 325.608 111.196 326.266 111.863 326.995C111.483 327.208 111.359 327.199 111.315 327.172C111.668 327.667 116.949 335.204 118.568 334.877C120.187 334.549 125.6 334.063 123.159 326.447Z" fill="white" stroke="#263238" stroke-width="1.10919" stroke-miterlimit="10"/>
<path d="M92.6137 295.931L91.5391 296.663L105.347 316.936L106.422 316.204L92.6137 295.931Z" fill="#263238" stroke="#263238" stroke-width="1.10919" stroke-miterlimit="10"/>
<path d="M95.4344 302.405C95.4344 302.405 90.1271 308.137 90.764 308.668C91.4009 309.199 93.4177 311.189 93.9661 310.941C94.5145 310.694 97.3097 306.076 97.4512 305.554C97.5928 305.032 95.4344 302.405 95.4344 302.405Z" fill="white" stroke="#263238" stroke-width="1.10919" stroke-miterlimit="10"/>
<path d="M98.0828 306.253C98.0828 306.253 94.0669 312.144 94.4473 312.675C94.8276 313.206 99.905 319.141 100.542 319.539C101.179 319.937 104.761 316.505 104.761 316.505L98.0828 306.253Z" fill="white" stroke="#263238" stroke-width="1.10919" stroke-miterlimit="10"/>
<path d="M100.226 309.632C100.226 309.632 96.4751 315.532 96.8643 315.541" stroke="#263238" stroke-width="1.10919" stroke-miterlimit="10"/>
<path d="M102.739 313.706L99.2808 317.793" stroke="#263238" stroke-width="1.10919" stroke-miterlimit="10"/>
<path d="M102.32 308.249L105.54 309.735C105.54 309.735 104.735 317.643 109.078 320.35" fill="white"/>
<path d="M102.32 308.249L105.54 309.735C105.54 309.735 104.735 317.643 109.078 320.35" stroke="#263238" stroke-width="1.10919" stroke-miterlimit="10"/>
<path d="M111.317 327.145C111.317 327.145 111.297 327.125 111.317 327.145V327.145Z" fill="white" stroke="#263238" stroke-width="1.10919" stroke-miterlimit="10"/>
<path d="M148.096 370.16C148.096 370.16 116.8 332.787 113.404 328.772C110.007 324.756 102.347 323.093 97.8532 324.49C93.3596 325.888 87.8931 338.449 86.8051 343.641C85.7171 348.833 76.8273 371.248 75.3059 374.193C73.7845 377.139 71.4669 380.323 71.4404 381.571C71.4139 382.818 71.3962 383.8 71.3962 383.8L69.8394 387.241C69.8394 387.241 77.0219 388.125 80.0117 387.692C83.0015 387.258 87.2828 383.862 88.0612 382.137C88.8396 380.412 91.0333 376.166 93.6781 374.308C97.4463 371.655 104.001 353.902 104.001 353.902L116.385 380.96C116.385 380.96 140.887 384.419 146.362 383.782C151.838 383.145 148.096 370.16 148.096 370.16Z" fill="#263238" stroke="#263238" stroke-width="1.10919" stroke-miterlimit="10"/>
<path d="M146.912 367.158C146.912 367.158 143.09 372.041 143.073 373.041V374.031L122.162 376.128C122.162 376.128 100.57 375.703 97.3323 376.384C94.0948 377.065 47.1781 389.555 44.1883 389.997C41.1985 390.44 39.7655 387.919 38.5271 387.892C37.2888 387.866 36.0592 386.848 34.3255 386.813C32.5918 386.778 31.0527 389.237 30.0531 389.467C29.4095 389.704 28.7374 389.856 28.054 389.918C27.311 389.918 27.8417 388.149 27.311 389.918C26.7803 391.687 25.4446 396.579 26.6387 398.834C27.4088 400.238 28.4887 401.448 29.7966 402.372C29.7966 402.372 70.0173 402.417 76.6779 402.549C83.3386 402.682 104.02 400.86 106.505 400.656C108.991 400.453 144.939 402.647 150.644 402.762C156.35 402.877 175.226 402.762 178.49 400.824C181.754 398.887 185.938 388.06 185.275 383.832C184.611 379.604 150.096 367.503 150.096 367.503L146.912 367.158Z" fill="#263238" stroke="#263238" stroke-width="1.10919" stroke-miterlimit="10"/>
<path d="M145.485 363.663C145.132 364.525 145.028 365.469 145.184 366.387C145.396 368.156 184.255 386.732 185.511 386.042C186.767 385.352 187.652 378.134 187.652 378.134L145.529 361.425L145.485 363.663Z" fill="#0187FF" stroke="#263238" stroke-width="1.10919" stroke-miterlimit="10"/>
<path d="M162.053 304.155C162.053 304.155 154.915 313.947 152.279 321.589C149.643 329.232 145.406 355.459 143.858 358.661C142.31 361.863 142.265 363.845 144.486 364.384C146.706 364.924 167.882 374.273 175.02 377.139C182.159 380.005 188.563 382.624 189.642 378.174C190.721 373.725 190.783 371.001 190.659 364.296C190.536 357.591 190.421 326.056 189.854 316.866C189.288 307.675 184.37 292.673 177.913 293.045C171.456 293.416 162.053 304.155 162.053 304.155Z" fill="#0187FF" stroke="#263238" stroke-width="1.10919" stroke-miterlimit="10"/>
<path d="M175.571 269.693C174.811 264.297 172.228 259.892 167.814 257.132C168.511 256.352 169.457 255.838 170.491 255.677C171.524 255.516 172.582 255.717 173.484 256.247C173.484 256.247 174.076 254.142 172.36 253.408C171.856 253.212 171.31 253.147 170.774 253.218C170.237 253.289 169.727 253.495 169.291 253.815C169.291 253.815 169.583 250.993 171.494 249.622C173.404 248.251 177.128 250.206 177.128 250.206C177.128 250.206 176.332 242.891 171.6 244.209C166.867 245.527 167.495 249.516 167.495 249.516C167.495 249.516 166.611 246.208 163.798 245.916C160.985 245.624 158.818 247.933 158.818 247.933C158.818 247.933 161.215 245.863 163.736 249.445C164.402 250.304 164.842 251.315 165.018 252.387C165.195 253.459 165.1 254.558 164.744 255.584C163.995 255.291 163.23 255.04 162.453 254.832C155.802 253.063 148.212 254.974 144.975 258.211C142.386 258.849 139.958 260.018 137.845 261.643C134.307 264.642 137.615 268.782 138.102 269.348L138.367 270.834C138.702 273.847 139.195 276.841 139.844 279.803C140.508 281.935 141.666 282.66 141.613 283.837C141.56 285.013 139.623 289.215 141.003 290.648C142.383 292.081 143.577 291.647 143.577 291.647C143.577 291.647 148.999 303.049 151.37 302.147C153.741 301.245 157.818 297.096 157.818 297.096L163.17 300.502L173.033 289.631L171.264 284.889C171.264 284.889 176.606 277.008 175.571 269.693Z" fill="white" stroke="#263238" stroke-width="1.10919" stroke-miterlimit="10"/>
<path d="M142.498 269.18C145.364 267.818 152.697 266.137 151.441 268.34C150.185 270.542 149.902 274.399 151.512 274.832C153.122 275.266 156.536 277.565 157.704 278.37C158.871 279.175 160.357 278.627 160.357 277.406C160.357 276.186 161.649 273.78 164.258 275.044C166.868 276.309 167.027 278.751 166.363 281.581C166.01 283.215 165.036 284.649 163.648 285.579C163.648 285.579 166.761 288.083 171.556 285.686L171.246 284.872C171.246 284.872 176.553 276.973 175.545 269.658C174.784 264.262 172.201 259.857 167.787 257.097C168.485 256.317 169.431 255.803 170.464 255.642C171.498 255.481 172.556 255.682 173.457 256.212C173.457 256.212 174.05 254.107 172.334 253.373C171.829 253.177 171.284 253.112 170.747 253.183C170.211 253.254 169.701 253.459 169.265 253.78C169.265 253.78 169.557 250.958 171.467 249.587C173.378 248.216 177.102 250.171 177.102 250.171C177.102 250.171 176.306 242.856 171.573 244.174C166.841 245.492 167.469 249.481 167.469 249.481C167.469 249.481 166.584 246.173 163.772 245.881C160.959 245.589 158.792 247.897 158.792 247.897C158.792 247.897 161.189 245.828 163.71 249.41C164.375 250.269 164.816 251.28 164.992 252.352C165.168 253.424 165.074 254.523 164.718 255.549C163.969 255.256 163.204 255.005 162.427 254.797C155.775 253.028 148.186 254.939 144.948 258.176C142.36 258.814 139.932 259.983 137.819 261.608C134.281 264.607 137.589 268.746 138.075 269.313C138.102 269.366 139.632 270.542 142.498 269.18Z" fill="#263238" stroke="#263238" stroke-width="1.10919" stroke-miterlimit="10"/>
<path d="M144.729 279.77L144.676 282.423C145.552 282.656 146.472 282.676 147.358 282.482C148.244 282.288 149.071 281.886 149.771 281.309" stroke="#263238" stroke-width="1.10919" stroke-miterlimit="10"/>
<path d="M141.727 277.281C142.419 276.425 143.395 275.843 144.477 275.641C145.56 275.438 146.68 275.628 147.635 276.176" stroke="#263238" stroke-width="1.10919" stroke-miterlimit="10"/>
<path d="M146.918 291.98C146.918 291.98 150.368 291.847 152.473 287.831" stroke="#263238" stroke-width="1.10919" stroke-miterlimit="10"/>
<path d="M153.121 296.564C151.069 297.537 148.486 294.848 147.274 294.627C146.292 294.441 146.46 296.396 146.567 297.157C148.23 299.934 150.202 302.623 151.405 302.163C153.776 301.279 157.854 297.112 157.854 297.112L158.039 297.236C158.585 296.323 158.929 295.304 159.048 294.246C159.074 292.628 155.164 295.635 153.121 296.564Z" fill="#263238" stroke="#263238" stroke-width="1.10919" stroke-miterlimit="10"/>
<path d="M183.481 287.203C183.481 287.203 176.077 284.824 171.769 289.459C167.461 294.094 155.768 307.76 158.253 307.814C160.739 307.867 165.091 300.994 170.097 298.853C175.104 296.712 178.058 296.783 179.748 300.286C181.437 303.789 187.187 326.248 189.478 322.32C191.769 318.393 195.909 310.538 193.821 303.046C191.734 295.554 185.931 288.743 183.481 287.203Z" fill="white" stroke="#263238" stroke-width="1.10919" stroke-miterlimit="10"/>
<path d="M164.579 313.882C164.579 313.882 158.388 324.682 157.795 330.626C157.202 336.571 155.212 361.365 155.212 361.365C155.212 361.365 152.762 359.826 151.488 361.285C150.214 362.745 149.409 365.964 149.409 365.964C149.409 365.964 145.96 364.903 145.181 366.38C144.736 367.237 144.221 368.057 143.642 368.83L122.156 376.128C122.156 376.128 156.123 378.038 158.856 377.844C160.525 377.71 162.107 377.043 163.368 375.942C163.368 375.942 165.561 377.711 169.312 376.305C173.062 374.898 174.345 373.182 175.389 370.219C176.432 367.256 181.368 331.122 181.368 331.122" fill="#0187FF"/>
<path d="M164.579 313.882C164.579 313.882 158.388 324.682 157.795 330.626C157.202 336.571 155.212 361.365 155.212 361.365C155.212 361.365 152.762 359.826 151.488 361.285C150.214 362.745 149.409 365.964 149.409 365.964C149.409 365.964 145.96 364.903 145.181 366.38C144.736 367.237 144.221 368.057 143.642 368.83L122.156 376.128C122.156 376.128 156.123 378.038 158.856 377.844C160.525 377.71 162.107 377.043 163.368 375.942C163.368 375.942 165.561 377.711 169.312 376.305C173.062 374.898 174.345 373.182 175.389 370.219C176.432 367.256 181.368 331.122 181.368 331.122" stroke="#263238" stroke-width="1.10919" stroke-miterlimit="10"/>
<path d="M122.156 376.131C122.156 376.131 132.479 376.715 142.2 377.202C140.794 374.911 141.448 371.602 142.2 369.347L122.156 376.131Z" fill="white" stroke="#263238" stroke-width="1.10919" stroke-miterlimit="10"/>
<path d="M0 401.698H460.225" stroke="#263238" stroke-width="1.10919" stroke-miterlimit="10"/>
</svg>
