<svg width="356" height="357" viewBox="0 0 356 357" fill="none" xmlns="http://www.w3.org/2000/svg">
<g clip-path="url(#clip0)">
<path d="M11.6356 122.137C35.5744 43.0722 84.3613 63.2368 144.011 47.9821C203.661 32.7273 227.308 33.9777 274.26 68.6372C321.211 103.297 344.108 163.91 298.462 207.949C252.816 251.987 262.303 292.073 227.506 317.346C192.709 342.62 147.608 338.606 110.964 294.184C74.3192 249.762 -17.8863 219.628 11.6356 122.137Z" fill="#5082FF"/>
<path opacity="0.7" d="M11.6356 122.137C35.5744 43.0722 84.3613 63.2368 144.011 47.9821C203.661 32.7273 227.308 33.9777 274.26 68.6372C321.211 103.297 344.108 163.91 298.462 207.949C252.816 251.987 262.303 292.073 227.506 317.346C192.709 342.62 147.608 338.606 110.964 294.184C74.3192 249.762 -17.8863 219.628 11.6356 122.137Z" fill="white"/>
<path d="M102.818 54H147.38C148.923 54 150.403 54.6129 151.494 55.7039C152.585 56.7949 153.198 58.2747 153.198 59.8176V86.3636C153.199 87.1283 153.049 87.8858 152.757 88.5926C152.466 89.2995 152.037 89.9419 151.497 90.483C150.957 91.0242 150.315 91.4535 149.609 91.7464C148.902 92.0393 148.145 92.1901 147.38 92.1901H141.822L146.959 101.928L135.092 92.1901H102.818C102.053 92.1901 101.296 92.0393 100.589 91.7464C99.8828 91.4535 99.2411 91.0242 98.7008 90.483C98.1604 89.9419 97.7321 89.2995 97.4403 88.5926C97.1484 87.8858 96.9988 87.1283 97 86.3636V59.8176C97 58.2747 97.6129 56.7949 98.7039 55.7039C99.7949 54.6129 101.275 54 102.818 54V54Z" stroke="#263238" stroke-linecap="round" stroke-linejoin="round"/>
<g opacity="0.5">
<path opacity="0.5" d="M105.204 64.7344H144.997C145.402 64.7344 145.73 64.4058 145.73 64.0005V63.6783C145.73 63.2729 145.402 62.9444 144.997 62.9444L105.204 62.9444C104.799 62.9444 104.471 63.2729 104.471 63.6783V64.0005C104.471 64.4058 104.799 64.7344 105.204 64.7344Z" fill="#263238"/>
<path opacity="0.5" d="M105.204 70.7695H144.997C145.402 70.7695 145.73 70.4409 145.73 70.0356V69.7134C145.73 69.3081 145.402 68.9795 144.997 68.9795H105.204C104.799 68.9795 104.471 69.3081 104.471 69.7134V70.0356C104.471 70.4409 104.799 70.7695 105.204 70.7695Z" fill="#263238"/>
<path opacity="0.5" d="M105.204 76.7969H144.997C145.402 76.7969 145.73 76.4683 145.73 76.063V75.7408C145.73 75.3354 145.402 75.0068 144.997 75.0068H105.204C104.799 75.0068 104.471 75.3354 104.471 75.7408V76.063C104.471 76.4683 104.799 76.7969 105.204 76.7969Z" fill="#263238"/>
<path opacity="0.5" d="M124.001 82.8359H144.989C145.394 82.8359 145.723 82.5073 145.723 82.102V81.7798C145.723 81.3745 145.394 81.0459 144.989 81.0459H124.001C123.595 81.0459 123.267 81.3745 123.267 81.7798V82.102C123.267 82.5073 123.595 82.8359 124.001 82.8359Z" fill="#263238"/>
</g>
<path d="M158.427 226.825C158.425 226.843 158.425 226.861 158.427 226.878C157.997 227.774 151.804 241.011 144.259 253.729C142.281 257.067 140.214 260.361 138.128 263.395C133.59 270 128.99 275.343 125.168 277.008C112.638 282.459 119.798 239.749 119.798 239.749C124.369 234.309 128.3 228.363 131.514 222.028C133.009 219.074 134.745 215.646 136.562 212.182C137.958 209.542 139.39 206.902 140.795 204.458C143.973 198.909 146.935 194.434 148.734 193.557C150.703 192.591 153.424 202.57 155.482 211.851C157.156 219.584 158.427 226.825 158.427 226.825Z" fill="white" stroke="#263238" stroke-linecap="round" stroke-linejoin="round"/>
<path d="M158.432 226.827C158.43 226.845 158.43 226.863 158.432 226.881C158.003 227.776 151.809 241.013 144.264 253.731C146.537 233.405 144.407 219.81 144.407 219.81C139.565 212.489 136.531 212.212 136.531 212.212C137.927 209.571 139.359 206.931 140.765 204.488L147.173 198.5L155.452 211.88C157.161 219.586 158.432 226.827 158.432 226.827Z" fill="#263238"/>
<path d="M216.178 90.1397C227.491 98.3291 237.389 127.256 233.612 146.051C229.835 164.846 249.266 170.216 249.195 199.886C249.195 208.156 223.579 241.772 193.838 223.836C164.097 205.9 155.836 197.076 158.664 179.086C161.492 161.096 161.618 149.264 156.248 134.165C150.878 119.066 195.655 75.3094 216.178 90.1397Z" fill="#263238"/>
<path d="M259.695 217.011L253.376 221.298C251.73 231.669 248.861 241.808 244.829 251.504C236.872 270.183 229.828 281.317 227.367 284.996C226.758 285.891 226.427 286.338 226.427 286.338L233.032 311.103C233.032 311.103 188.953 356.936 140.336 350.322L143.585 324.367L147.962 289.462L149.385 278.122C149.385 278.122 148.785 269.986 147.827 259.971C147.174 253.071 146.351 245.275 145.42 238.634C145.381 238.337 145.366 238.038 145.375 237.739C145.447 233.55 148.731 224.743 148.731 224.743C145.957 220.349 143.361 216.303 141.222 213.108C138.394 208.821 136.523 206.065 136.523 206.065C136.523 206.065 146.369 193.964 146.923 192.586C150.038 184.432 160.921 185.954 160.921 185.954C161.735 185.167 162.751 184.621 163.857 184.378C169.03 183.081 183.735 193.391 191.763 193.472C199.792 193.552 239.199 182.938 239.199 182.938L243.209 184.378C243.209 184.378 248.641 183.734 252.884 191.592C254.898 195.396 259.695 217.011 259.695 217.011Z" fill="#5082FF"/>
<path opacity="0.3" d="M188.934 319.08C188.934 319.08 161.547 328.325 143.539 324.378L147.916 289.473C151.818 293.348 174.444 315.177 188.934 319.08Z" fill="black" fill-opacity="0.7"/>
<path opacity="0.3" d="M148.681 224.78C145.906 220.386 143.311 216.34 141.172 213.145C143.033 208.67 145.799 204.526 149.63 204.768C149.63 204.768 146.954 216.654 148.681 224.78Z" fill="black" fill-opacity="0.7"/>
<path opacity="0.3" d="M237.506 217.006C232.592 218.635 221.458 223.567 221.458 223.567L219.4 221.177L227.321 209.828C227.321 209.828 221.745 212.084 219.4 214.921C217.055 217.758 216.437 224.086 216.348 224.059C216.258 224.032 214.298 217.4 214.298 217.4C213.633 220.161 213.196 222.972 212.992 225.804C212.732 228.802 216.026 233.68 218.881 237.305L213.905 263.788L194.93 252.252L185.98 246.828C185.198 246.416 184.441 245.955 183.716 245.45C182.678 244.608 181.997 243.516 180.789 242.765C179.408 241.99 177.917 241.432 176.368 241.109C170.702 239.79 164.815 239.744 159.13 240.975C156.731 241.494 154.27 242.236 151.889 241.673C149.508 241.109 147.468 239.202 145.374 237.77C145.365 238.069 145.38 238.369 145.418 238.665C146.313 245.306 147.208 253.102 147.826 260.002H148.846C149.507 259.966 150.169 260.02 150.815 260.164C152.185 260.539 154.905 267.216 155.845 268.272C162.71 275.934 174.193 288.858 182.534 294.899C180.87 290.424 172.161 274.761 172.322 269.839C174.193 270.465 175.652 271.906 177.155 273.186C181.684 277.07 187.09 279.773 192.424 282.44L204.176 288.321C207.756 290.111 212.472 292.912 216.59 291.811C219.964 290.916 224.215 287.524 226.909 285.385L227.357 285.027C229.818 281.348 236.862 270.214 244.818 251.536C248.85 241.84 251.72 231.7 253.366 221.329L259.684 217.042C259.684 217.042 242.42 215.377 237.506 217.006Z" fill="black" fill-opacity="0.7"/>
<path d="M140.336 350.322L149.385 278.166C149.385 278.166 147.684 254.967 145.42 238.678C144.91 235.026 148.731 224.779 148.731 224.779C142.225 214.486 136.523 206.1 136.523 206.1C136.523 206.1 146.369 193.999 146.923 192.621C150.038 184.467 160.921 185.989 160.921 185.989C161.735 185.202 162.751 184.656 163.857 184.414C169.03 183.116 183.735 193.426 191.763 193.507C199.792 193.587 239.199 182.973 239.199 182.973L243.209 184.414C243.209 184.414 248.641 183.769 252.884 191.627C254.924 195.395 259.731 217.01 259.731 217.01L253.412 221.297C251.766 231.668 248.897 241.808 244.864 251.504C234.948 274.774 226.454 286.355 226.454 286.355L233.059 311.12" stroke="#263238" stroke-linecap="round" stroke-linejoin="round"/>
<path d="M228.36 208.461C228.36 208.461 217.146 222.987 217.423 225.672C217.7 228.357 222.891 231.123 222.891 231.123" stroke="#263238" stroke-linecap="round" stroke-linejoin="round"/>
<path d="M213.902 214.29C214.443 218.062 214.757 221.864 214.841 225.674C214.841 230.65 228.356 238.911 228.356 238.911" stroke="#263238" stroke-linecap="round" stroke-linejoin="round"/>
<path d="M148.684 224.78C148.684 224.78 147.744 205.627 150.724 202.324" stroke="#263238" stroke-linecap="round" stroke-linejoin="round"/>
<path d="M145.375 209.403C145.375 209.403 146.914 219.32 148.543 221.208" stroke="#263238" stroke-linecap="round" stroke-linejoin="round"/>
<path d="M195.724 217.007C195.724 217.007 176.365 229.465 158.429 231.121" stroke="#263238" stroke-linecap="round" stroke-linejoin="round"/>
<path d="M158.43 271.492C158.43 271.492 180.143 297.689 194.311 301.233" stroke="#263238" stroke-linecap="round" stroke-linejoin="round"/>
<path d="M226.415 286.358C226.415 286.358 221.483 282.778 222.889 280.684" stroke="#263238" stroke-linecap="round" stroke-linejoin="round"/>
<path d="M213.904 307.656C213.904 307.656 183.098 324.831 167.363 323.417" stroke="#263238" stroke-linecap="round" stroke-linejoin="round"/>
<path d="M131.24 252.596C127.221 237.828 120.643 233.013 116.302 217.198C115.013 212.517 111.191 198.242 111.191 198.242C111.191 198.242 116.069 183.026 106.323 174.363C106.323 174.363 103.637 174.363 99.064 184.897C97.1535 189.499 96.658 194.565 97.6409 199.45C97.6409 199.45 100.675 218.003 101.337 222.989C102.93 235.009 106.385 255.137 111.182 265.242C116.329 276.045 121.752 278.461 125.816 276.233" fill="white"/>
<path d="M131.24 252.596C127.221 237.828 120.643 233.013 116.302 217.198C115.013 212.517 111.191 198.242 111.191 198.242C111.191 198.242 116.069 183.026 106.323 174.363C106.323 174.363 103.637 174.363 99.064 184.897C97.1535 189.499 96.658 194.565 97.6409 199.45C97.6409 199.45 100.675 218.003 101.337 222.989C102.93 235.009 106.385 255.137 111.182 265.242C116.329 276.045 121.752 278.461 125.816 276.233" stroke="#263238" stroke-linecap="round" stroke-linejoin="round"/>
<path d="M112.892 195L123.328 198.446C124.429 198.732 126.595 196.898 126.497 195.761L123.373 159.441C123.312 158.726 123.031 158.047 122.567 157.499C122.104 156.951 121.482 156.56 120.786 156.38L109.268 153.874C108.167 153.597 105.401 154.913 105.5 156.04L110.297 191.939C110.358 192.656 110.641 193.335 111.106 193.884C111.571 194.432 112.196 194.823 112.892 195Z" fill="#5082FF"/>
<path opacity="0.3" d="M112.891 195.003L123.327 198.449C124.428 198.735 126.594 196.901 126.496 195.764L123.372 159.444C123.311 158.729 123.03 158.05 122.566 157.502C122.103 156.953 121.481 156.563 120.785 156.383L109.267 153.877C108.166 153.6 105.4 154.916 105.499 156.043L110.296 191.942C110.357 192.659 110.64 193.338 111.105 193.887C111.57 194.435 112.195 194.825 112.891 195.003Z" fill="black" fill-opacity="0.7"/>
<path d="M112.892 195L123.328 198.446C124.429 198.732 126.595 196.898 126.497 195.761L123.373 159.441C123.312 158.726 123.031 158.047 122.567 157.499C122.104 156.951 121.482 156.56 120.786 156.38L109.268 153.874C108.167 153.597 105.401 154.913 105.5 156.04L110.297 191.939C110.358 192.656 110.641 193.335 111.106 193.884C111.571 194.432 112.196 194.823 112.892 195V195Z" stroke="#263238" stroke-linecap="round" stroke-linejoin="round"/>
<path d="M111.171 195.896L122.69 198.393C122.944 198.46 123.211 198.465 123.467 198.407C123.724 198.35 123.963 198.231 124.164 198.062C124.365 197.892 124.522 197.677 124.622 197.434C124.723 197.191 124.763 196.928 124.74 196.666L121.661 160.337C121.6 159.621 121.317 158.941 120.852 158.393C120.387 157.844 119.762 157.454 119.065 157.276L107.556 154.77C107.301 154.705 107.034 154.702 106.778 154.761C106.522 154.82 106.283 154.939 106.082 155.109C105.882 155.279 105.725 155.495 105.624 155.738C105.524 155.981 105.484 156.245 105.506 156.507L108.585 192.835C108.646 193.55 108.927 194.229 109.391 194.778C109.854 195.326 110.476 195.717 111.171 195.896Z" fill="#5082FF" stroke="#263238" stroke-linecap="round" stroke-linejoin="round"/>
<path opacity="0.3" d="M117.564 167.057L119.417 167.46C119.457 167.47 119.5 167.47 119.541 167.46C119.582 167.451 119.62 167.432 119.652 167.405C119.684 167.378 119.71 167.343 119.726 167.305C119.743 167.266 119.75 167.224 119.748 167.182L119.256 161.32C119.245 161.205 119.198 161.096 119.123 161.007C119.048 160.919 118.947 160.857 118.835 160.828L116.973 160.425C116.932 160.415 116.89 160.415 116.849 160.425C116.808 160.434 116.77 160.453 116.738 160.48C116.705 160.507 116.68 160.541 116.663 160.58C116.647 160.619 116.64 160.661 116.642 160.702L117.143 166.565C117.154 166.68 117.201 166.789 117.276 166.877C117.351 166.965 117.452 167.028 117.564 167.057Z" fill="black" fill-opacity="0.7"/>
<path d="M101.365 185.263C100.918 180.17 105.554 172.527 108.642 172.527C111.729 172.527 121.109 179.759 121.109 179.759C124.743 182.39 122.944 184.896 122.944 184.896C125.083 186.31 125.629 188.225 124.689 189.111C123.749 189.997 120.608 189.111 120.608 189.111C120.608 189.111 123.722 191.385 122.944 192.503C121.109 195.144 115.077 191.662 115.077 191.662C115.077 191.662 118.576 193.971 118.379 194.41C117.055 197.292 111.336 193.935 111.336 193.935L107.317 195.994C107.321 196.468 107.226 196.937 107.04 197.373C106.853 197.809 106.578 198.201 106.233 198.526C105.888 198.85 105.479 199.1 105.032 199.258C104.586 199.417 104.111 199.482 103.638 199.449" fill="white"/>
<path d="M101.365 185.263C100.918 180.17 105.554 172.527 108.642 172.527C111.729 172.527 121.109 179.759 121.109 179.759C124.743 182.39 122.944 184.896 122.944 184.896C125.083 186.31 125.629 188.225 124.689 189.111C123.749 189.997 120.608 189.111 120.608 189.111C120.608 189.111 123.722 191.385 122.944 192.503C121.109 195.144 115.077 191.662 115.077 191.662C115.077 191.662 118.576 193.971 118.379 194.41C117.055 197.292 111.336 193.935 111.336 193.935L107.317 195.994C107.321 196.468 107.226 196.937 107.04 197.373C106.853 197.809 106.578 198.201 106.233 198.526C105.888 198.85 105.479 199.1 105.032 199.258C104.586 199.417 104.111 199.482 103.638 199.449" stroke="#263238" stroke-linecap="round" stroke-linejoin="round"/>
<path d="M122.944 184.896C122.944 184.896 114.155 179.222 113.045 179.069C111.936 178.917 107.863 178.031 107.863 178.031" fill="white"/>
<path d="M122.944 184.896C122.944 184.896 114.155 179.222 113.045 179.069C111.936 178.917 107.863 178.031 107.863 178.031" stroke="#263238" stroke-linecap="round" stroke-linejoin="round"/>
<path d="M120.645 189.109C120.645 189.109 113.485 185.422 112.196 185.422C110.22 185.205 108.259 184.868 106.325 184.411" fill="white"/>
<path d="M120.645 189.109C120.645 189.109 113.485 185.422 112.196 185.422C110.22 185.205 108.259 184.868 106.325 184.411" stroke="#263238" stroke-linecap="round" stroke-linejoin="round"/>
<path d="M115.08 191.661C114.246 191.067 113.363 190.546 112.44 190.103C110.735 189.981 109.025 189.981 107.32 190.103" fill="white"/>
<path d="M115.08 191.661C114.246 191.067 113.363 190.546 112.44 190.103C110.735 189.981 109.025 189.981 107.32 190.103" stroke="#263238" stroke-linecap="round" stroke-linejoin="round"/>
<path d="M204.578 248.824C204.578 248.824 210.127 245.7 215.086 234.047C220.044 222.394 221.458 223.566 221.458 223.566C221.458 223.566 232.314 218.241 237.506 217.006C242.697 215.771 252.139 217.006 252.139 217.006C252.139 217.006 244.084 240.375 235.859 255.572C227.634 270.769 221.011 279.737 216.616 280.632C212.222 281.527 204.578 248.824 204.578 248.824Z" fill="white" stroke="#263238" stroke-linecap="round" stroke-linejoin="round"/>
<path d="M236.797 184.503C236.797 184.503 197.291 205.545 185.871 205.428C174.451 205.312 167.335 185.738 167.335 185.738C167.335 185.738 188.458 185.264 186.005 175.168C186.005 174.998 185.925 174.81 185.871 174.631C184.86 171.105 180.984 164.929 179.543 162.709C179.203 162.181 178.997 161.877 178.997 161.877L210.26 138.535C208.47 162.137 211.925 172.483 214.046 176.367C217.689 183.017 236.797 184.503 236.797 184.503Z" fill="white" stroke="#263238" stroke-linecap="round" stroke-linejoin="round"/>
<path d="M201.394 151.762C201.394 151.762 194.878 170.181 185.982 175.166C185.982 174.996 185.901 174.808 185.847 174.629C184.836 171.103 180.96 164.927 179.52 162.708L201.394 151.762Z" fill="#263238"/>
<path d="M187.848 199.818C187.848 199.818 190.058 195.548 193.361 195.047C196.664 194.546 205.757 194.456 222.574 191.664" stroke="#263238" stroke-linecap="round" stroke-linejoin="round"/>
<path d="M182.775 199.816C182.775 199.816 181.361 196.495 180.985 195.045C180.609 193.596 171.82 191.77 168.902 189.371" stroke="#263238" stroke-linecap="round" stroke-linejoin="round"/>
<path d="M158.869 99.6797C153.078 105.99 151.351 126.584 154.242 135.48C154.242 135.48 168.75 137.557 172.142 134.943C175.534 132.33 158.869 99.6797 158.869 99.6797Z" fill="#263238"/>
<path d="M213.427 141.271C214.824 135.105 222.225 105.211 204.799 91.983C187.374 78.7547 166.117 96.3954 163.137 100.557C151.117 117.348 156.442 130.692 158.662 138.738C160.881 146.784 159.789 156.531 171.031 169.929C175.756 175.559 184.259 172.561 192.636 166.734C197.657 163.244 204.728 157.104 204.907 151.188" fill="white"/>
<path d="M213.427 141.271C214.824 135.105 222.225 105.211 204.799 91.983C187.374 78.7547 166.117 96.3954 163.137 100.557C151.117 117.348 156.442 130.692 158.662 138.738C160.881 146.784 159.789 156.531 171.031 169.929C175.756 175.559 184.259 172.561 192.636 166.734C197.657 163.244 204.728 157.104 204.907 151.188" stroke="#263238" stroke-linecap="round" stroke-linejoin="round"/>
<path d="M173.594 128.169C173.594 128.169 183.036 126.486 188.379 129.834" stroke="#263238" stroke-linecap="round" stroke-linejoin="round"/>
<path d="M183.58 137.298C183.812 138.748 183.302 140.036 182.434 140.18C181.566 140.323 180.644 139.285 180.429 137.817C180.214 136.349 180.707 135.078 181.575 134.935C182.443 134.792 183.338 135.848 183.58 137.298Z" fill="#263238"/>
<path d="M164.712 137.298C164.945 138.748 164.435 140.036 163.567 140.18C162.699 140.323 161.777 139.285 161.562 137.817C161.347 136.349 161.839 135.078 162.708 134.935C163.576 134.792 164.498 135.848 164.712 137.298Z" fill="#263238"/>
<path d="M163.138 128.257C163.138 128.257 157.929 126.395 156.246 128.785" stroke="#263238" stroke-linecap="round" stroke-linejoin="round"/>
<path d="M166.421 136.586C166.958 138.627 162.841 147.827 163.136 148.624C163.432 149.42 165.454 150.834 169.079 151.192" stroke="#263238" stroke-linecap="round" stroke-linejoin="round"/>
<path d="M170.871 157.519C170.871 157.519 178.425 157.519 182.775 154.449" stroke="#263238" stroke-linecap="round" stroke-linejoin="round"/>
<path d="M161.023 95.2426C161.023 95.2426 153.058 102.644 158.195 117.197C159.329 120.165 161.004 122.896 163.136 125.252C168.461 122.254 171.119 126.935 174.305 125.404C177.491 123.874 182.566 127.123 185.869 126.478C187.493 126.117 189.178 126.133 190.795 126.525C192.412 126.918 193.917 127.677 195.195 128.743C197.674 130.962 197.674 135.822 201.388 138.167C201.388 138.167 203.554 130.569 208.119 131.67C212.683 132.77 208.647 145.99 208.647 145.99C214.367 139.017 217.934 130.53 218.913 121.565C220.703 106.35 214.688 93.0588 204.592 90.2395C204.592 90.2395 201.227 83.688 189.717 84.7441C178.208 85.8002 167.772 85.1558 161.023 95.2426Z" fill="#263238"/>
<path d="M204.579 133.664C204.579 133.664 208.83 123.247 215.023 127.569C221.217 131.892 213.788 145.165 210.772 148.531C207.756 151.896 206.879 148.181 206.53 147.116" fill="white"/>
<path d="M204.579 133.664C204.579 133.664 208.83 123.247 215.023 127.569C221.217 131.892 213.788 145.165 210.772 148.531C207.756 151.896 206.879 148.181 206.53 147.116" stroke="#263238" stroke-linecap="round" stroke-linejoin="round"/>
<g opacity="0.2">
<path opacity="0.2" d="M163.816 102.815C163.995 100.207 164.776 97.6763 166.099 95.4219" stroke="white" stroke-linecap="round" stroke-linejoin="round"/>
<path opacity="0.2" d="M170.87 120.741C167.04 116.463 164.122 110.708 163.809 104.926" stroke="white" stroke-linecap="round" stroke-linejoin="round"/>
<path opacity="0.2" d="M178.996 113.543C181.158 117.08 184.21 119.987 187.848 121.974" stroke="white" stroke-linecap="round" stroke-linejoin="round"/>
<path opacity="0.2" d="M176.821 95.4219C173.885 100.139 175.577 106.905 177.868 111.532" stroke="white" stroke-linecap="round" stroke-linejoin="round"/>
<path opacity="0.2" d="M206.652 122.246C208.871 123.397 211.201 124.318 213.607 124.994" stroke="white" stroke-linecap="round" stroke-linejoin="round"/>
<path opacity="0.2" d="M185.871 101.625C190.345 109.7 196.864 116.457 204.774 121.217" stroke="white" stroke-linecap="round" stroke-linejoin="round"/>
</g>
<path d="M141.344 179.255C141.344 179.255 138.659 179.255 138.417 181.215C138.176 183.175 142.176 185.735 142.176 185.735" fill="white"/>
<path d="M141.344 179.255C141.344 179.255 138.659 179.255 138.417 181.215C138.176 183.175 142.176 185.735 142.176 185.735" stroke="#263238" stroke-linecap="round" stroke-linejoin="round"/>
<path d="M216.769 250.456C210.719 241.228 202.18 235.455 194.546 225.217C188.227 216.725 182.397 207.88 177.084 198.724L168.985 183.509C168.985 183.509 159.068 171.552 155.058 170.084C151.049 168.616 129.103 167.918 129.103 167.918C129.103 167.918 128.208 170.299 131.6 171.498C134.992 172.697 145.383 173.673 145.383 173.673C145.383 173.673 142.322 174.989 141.615 176.071C140.908 177.154 141.615 186.051 143.029 187.859C144.443 189.667 149.876 191.314 149.876 191.314C149.876 191.314 150.592 197.579 155.9 200.684C161.207 203.79 163.802 203.826 163.802 203.826C163.802 203.826 168.797 212.31 170.882 218.37C175.357 231.285 186.643 260.65 194.797 271.238C204.445 283.768 216.948 284.251 221.468 276.277" fill="white"/>
<path d="M216.769 250.456C210.719 241.228 202.18 235.455 194.546 225.217C188.227 216.725 182.397 207.88 177.084 198.724L168.985 183.509C168.985 183.509 159.068 171.552 155.058 170.084C151.049 168.616 129.103 167.918 129.103 167.918C129.103 167.918 128.208 170.299 131.6 171.498C134.992 172.697 145.383 173.673 145.383 173.673C145.383 173.673 142.322 174.989 141.615 176.071C140.908 177.154 141.615 186.051 143.029 187.859C144.443 189.667 149.876 191.314 149.876 191.314C149.876 191.314 150.592 197.579 155.9 200.684C161.207 203.79 163.802 203.826 163.802 203.826C163.802 203.826 168.797 212.31 170.882 218.37C175.357 231.285 186.643 260.65 194.797 271.238C204.445 283.768 216.948 284.251 221.468 276.277" stroke="#263238" stroke-linecap="round" stroke-linejoin="round"/>
<path d="M154.653 178.398C154.653 178.398 146.956 179.293 145.98 179.992C145.005 180.69 145.47 186.194 145.98 188.118C146.067 188.62 146.263 189.096 146.554 189.513C146.844 189.931 147.223 190.279 147.663 190.535" stroke="#263238" stroke-linecap="round" stroke-linejoin="round"/>
<path d="M151.474 173.855C151.474 173.855 143.902 175.744 143.419 176.719C142.715 179.383 142.596 182.168 143.07 184.882C143.688 187.871 143.867 188.811 145.021 189.357" stroke="#263238" stroke-linecap="round" stroke-linejoin="round"/>
<path d="M145.375 173.682C146.452 173.232 147.558 172.855 148.687 172.555" stroke="#263238" stroke-linecap="round" stroke-linejoin="round"/>
<path d="M149.992 184.504C150.639 185.243 151.435 185.837 152.329 186.246C153.222 186.655 154.192 186.869 155.174 186.876C155.174 186.876 153.519 193.248 156.472 197.383" stroke="#263238" stroke-linecap="round" stroke-linejoin="round"/>
<path d="M151.475 185.738C151.475 185.738 149.765 187.126 149.989 187.868" stroke="#263238" stroke-linecap="round" stroke-linejoin="round"/>
<path d="M221.457 223.569C221.457 223.569 236.672 216.91 238.874 216.462C241.076 216.015 257.571 216.829 257.571 216.829C255.53 218.713 253.176 220.227 250.616 221.304C250.616 221.304 250.249 218.27 246.141 217.921C242.033 217.572 221.457 223.569 221.457 223.569Z" fill="#263238"/>
</g>
<defs>
<clipPath id="clip0">
<rect width="356" height="357" fill="white"/>
</clipPath>
</defs>
</svg>
